<svg width="25" height="44" viewBox="0 0 25 44" fill="none" xmlns="http://www.w3.org/2000/svg">
<path d="M1.04962 1.0852C1.74937 0.361731 2.63995 -9.77389e-07 3.72138 -9.30118e-07C4.8028 -8.82848e-07 5.69339 0.361732 6.39313 1.0852L23.9504 19.2377C24.3321 19.6323 24.6031 20.0598 24.7634 20.5202C24.9211 20.9806 25 21.4738 25 22C25 22.5262 24.9046 23.0365 24.7137 23.5311C24.5229 24.0231 24.2684 24.4335 23.9504 24.7623L6.39313 42.9148C5.69338 43.6383 4.8028 44 3.72137 44C2.63995 44 1.74937 43.6383 1.04962 42.9148C0.349875 42.1913 1.03355e-07 41.2706 1.52229e-07 40.1525C2.01102e-07 39.0344 0.349875 38.1136 1.04962 37.3901L15.9351 22L1.04962 6.60987C0.349876 5.8864 1.69029e-06 4.96562 1.73917e-06 3.84753C1.78804e-06 2.72945 0.349876 1.80867 1.04962 1.0852Z" fill="white"/>
</svg>
