<svg width="44" height="25" viewBox="0 0 44 25" fill="none" xmlns="http://www.w3.org/2000/svg">
<path d="M42.9148 1.04962C43.6383 1.74937 44 2.63995 44 3.72138C44 4.8028 43.6383 5.69339 42.9148 6.39313L24.7623 23.9504C24.3677 24.3321 23.9402 24.6031 23.4798 24.7634C23.0194 24.9211 22.5262 25 22 25C21.4738 25 20.9635 24.9046 20.4689 24.7137C19.9769 24.5229 19.5665 24.2684 19.2377 23.9504L1.08521 6.39313C0.361742 5.69338 1.7657e-06 4.8028 1.86024e-06 3.72137C1.95478e-06 2.63995 0.361742 1.74936 1.08521 1.04962C1.80868 0.349873 2.72945 -1.70064e-06 3.84754 -1.60289e-06C4.96562 -1.50515e-06 5.8864 0.349873 6.60987 1.04962L22 15.9351L37.3901 1.04962C38.1136 0.349876 39.0344 1.47324e-06 40.1525 1.57099e-06C41.2706 1.66873e-06 42.1913 0.349876 42.9148 1.04962Z" fill="white"/>
</svg>
