<svg width="38" height="38" viewBox="0 0 38 38" fill="none" xmlns="http://www.w3.org/2000/svg">
<g clip-path="url(#clip0_345_635)">
<path d="M26.5934 38C24.7694 37.9601 22.8472 37.4367 20.9938 36.6409C15.7582 34.3922 11.2982 31.0753 7.55899 26.7821C4.87676 23.7029 2.66005 20.3299 1.18205 16.5C0.607372 15.0125 0.142429 13.4966 0.028648 11.8934C-0.0262211 11.1213 -0.0152473 10.3526 0.163799 9.59383C0.359017 8.76736 0.748877 8.04499 1.34724 7.44523C2.34008 6.44987 3.33985 5.46029 4.34482 4.47708C4.9143 3.92012 5.58255 3.56732 6.40212 3.56732C7.26732 3.56732 7.95405 3.95945 8.54721 4.54938C9.48981 5.48632 10.4272 6.42847 11.3669 7.36888C11.8775 7.87958 12.388 8.39084 12.8975 8.90269C12.9991 9.00506 13.0996 9.10975 13.1932 9.21906C14.2403 10.4406 14.2576 11.8755 13.1666 13.0559C12.2587 14.0385 11.2849 14.9599 10.3371 15.9049C9.97381 16.267 9.96168 16.3098 10.1673 16.784C10.8921 18.456 11.9664 19.8956 13.1383 21.2709C14.9409 23.3866 16.9422 25.283 19.2981 26.7729C19.971 27.1985 20.6987 27.5369 21.4016 27.9145C21.6627 28.0551 21.8359 27.9047 22.0063 27.7324C22.9218 26.8087 23.8366 25.8851 24.7561 24.9661C25.2222 24.5005 25.764 24.161 26.4253 24.0523C27.4251 23.888 28.2371 24.2715 28.9302 24.9539C29.9461 25.9539 30.9517 26.9643 31.9601 27.9718C32.4233 28.4345 32.8837 28.9007 33.3446 29.3662C33.4324 29.4553 33.5196 29.5455 33.6033 29.6386C34.6701 30.8347 34.6897 32.302 33.6281 33.5038C33.2273 33.9578 32.7716 34.3627 32.3465 34.7953C31.8406 35.3106 31.3312 35.8225 30.8391 36.3511C29.7867 37.4818 28.5074 38.011 26.5934 37.9983V38Z" fill="#FF9800"/>
<path d="M36.0657 18.9697C35.04 18.9691 34.2579 18.249 34.1436 17.1889C34.0044 15.898 33.7289 14.6366 33.2281 13.44C30.967 8.03749 26.9471 4.84495 21.1697 3.88487C21.0085 3.85826 20.8445 3.84728 20.6828 3.82472C19.6691 3.6836 18.9483 2.80102 19.0251 1.79699C19.1048 0.754205 19.9233 -0.0589691 20.9519 0.00349378C21.7634 0.0526544 22.5783 0.189147 23.3719 0.372488C30.6146 2.04973 36.1605 7.70609 37.6945 14.9662C37.8239 15.5776 37.9151 16.1993 37.9862 16.8205C38.1196 17.9928 37.2342 18.9697 36.0657 18.9691V18.9697Z" fill="#FF9800"/>
<path d="M29.2832 18.9696C28.325 18.9656 27.5718 18.3132 27.387 17.315C27.1808 16.201 26.7794 15.1652 26.1452 14.2283C24.8422 12.3046 23.0593 11.0872 20.7756 10.6256C19.7585 10.4198 19.159 9.83561 19.0388 8.91949C18.8737 7.66155 19.9832 6.58349 21.2382 6.78129C26.0846 7.54588 30.1934 11.5238 31.125 16.3769C31.1996 16.7638 31.225 17.1918 31.1395 17.5706C30.946 18.426 30.1674 18.9731 29.2832 18.9691V18.9696Z" fill="#FF9800"/>
</g>
<defs>
<clipPath id="clip0_345_635">
<rect width="38" height="38" fill="white"/>
</clipPath>
</defs>
</svg>
