<svg width="48" height="48" viewBox="0 0 48 48" fill="none" xmlns="http://www.w3.org/2000/svg">
<path d="M43 11.2603C42.759 12.0885 42.5061 12.9128 42.2792 13.7449C41.2541 17.5074 40.2365 21.2723 39.2158 25.0356C39.009 25.7988 38.7561 25.9978 37.9951 25.9978C30.0891 25.9978 22.1831 25.9978 14.2778 25.9978H13.7266C13.9096 27.0838 13.9066 28.1603 14.6423 29.0003C15.2597 29.7055 16.0281 30.0118 16.9275 30.0118C23.9305 30.0103 30.9327 30.011 37.9356 30.011C38.0591 30.011 38.1833 30.0056 38.3068 30.015C38.8171 30.0526 39.2054 30.5039 39.1876 31.0336C39.1697 31.5538 38.7844 31.9652 38.2875 31.9902C38.1766 31.9957 38.0651 31.9918 37.9535 31.9918C30.926 31.9918 23.8985 31.9918 16.871 31.9918C14.3581 31.9918 12.4486 30.2422 12.0431 27.6244C11.3736 23.297 10.6774 18.9742 9.99299 14.6491C9.78544 13.3398 9.57269 12.0321 9.37482 10.7212C9.12338 9.0531 8.044 8.04234 6.43721 7.98984C6.27653 7.98436 6.1151 7.99298 5.95442 7.98749C5.40618 7.97182 5.00299 7.55655 5.00002 7.00964C4.99704 6.46039 5.3913 6.0412 5.93955 6.01064C8.58258 5.86177 10.4639 7.27918 11.1914 10.009C11.3327 10.009 11.4889 10.009 11.6452 10.009C21.6787 10.009 31.713 10.0129 41.7466 9.99961C42.3528 9.99882 42.7709 10.1939 42.9993 10.791V11.2603H43ZM13.4015 24.0037H13.8746C21.5947 24.0037 29.3147 23.9998 37.0348 24.0147C37.4134 24.0147 37.56 23.9089 37.6611 23.5265C38.3812 20.8092 39.1266 18.0998 39.8623 15.3872C40.1636 14.2777 40.4596 13.1666 40.7654 12.0313H11.5075C12.1398 16.0281 12.7669 19.9912 13.4022 24.0037H13.4015Z" fill="white"/>
<path d="M29.6988 38.0079C29.6876 35.8203 31.3792 34.0197 33.4524 34.0119C35.5532 34.004 37.2708 35.7591 37.2835 37.9272C37.2968 40.1908 35.6424 41.9851 33.5283 41.9992C31.4038 42.0141 29.7099 40.2488 29.6988 38.0071V38.0079ZM35.3865 38.0157C35.4163 36.9509 34.5586 36.0287 33.5186 36.0075C32.4876 35.9864 31.6359 36.8459 31.589 37.9554C31.5436 39.028 32.4132 39.9824 33.4606 40.0098C34.4931 40.0372 35.3553 39.1448 35.3865 38.0157Z" fill="white"/>
<path d="M12.5981 37.975C12.6182 35.7325 14.3321 33.9915 16.4998 34.0119C18.5403 34.0315 20.2148 35.8736 20.1955 38.0761C20.1761 40.2496 18.4503 42.018 16.3674 42C14.2682 41.9812 12.5788 40.1783 12.5989 37.975H12.5981ZM18.2881 38.0346C18.3112 36.9423 17.4914 36.042 16.4411 36.0076C15.4004 35.9731 14.5129 36.8702 14.4943 37.9758C14.4757 39.0665 15.3446 40.002 16.3853 40.0122C17.4096 40.0224 18.2643 39.1339 18.2874 38.0346H18.2881Z" fill="white"/>
</svg>
