<svg width="30" height="26" viewBox="0 0 30 26" fill="none" xmlns="http://www.w3.org/2000/svg">
<path d="M15.3743 0C15.6663 0 15.9584 0 16.2504 0C17.0896 0.123018 17.9389 0.186189 18.7613 0.379028C24.2565 1.65575 28.0564 4.73453 29.3823 10.3601C29.6643 11.5537 29.7986 12.7806 30 13.9908V15.6C29.9664 15.7995 29.9127 15.999 29.8993 16.2018C29.7684 18.3164 29.191 20.3212 28.4223 22.2862C28.2343 22.7683 27.959 22.9545 27.4757 23.0044C25.9047 23.1673 24.3404 23.3535 22.7694 23.5263C19.9832 23.8322 17.1937 24.1315 14.4075 24.4373C11.1682 24.7931 7.92548 25.1522 4.68949 25.5212C3.41725 25.6675 2.14502 25.8404 0.872776 26.0033H0C0 24.0217 0 22.0402 0 20.0619C0.27526 19.9389 0.543807 19.8026 0.822424 19.6928C1.16818 19.5598 1.55086 19.5 1.8664 19.3238C2.6049 18.9115 2.90702 18.1801 2.67875 17.5051C2.43706 16.787 1.76569 16.4046 0.882847 16.5343C0.322256 16.6174 0.104062 16.3913 0.124203 15.866C0.154414 15.0215 0.171198 14.177 0.238335 13.3325C0.251762 13.1396 0.40282 12.9136 0.557234 12.7806C4.04162 9.77826 7.53944 6.79258 11.0272 3.79361C12.4841 2.54015 13.9275 1.26675 15.3776 0.00332481L15.3743 0ZM1.0574 24.8928C1.36959 24.8729 1.61799 24.8696 1.86304 24.843C3.14199 24.6967 4.42095 24.5371 5.70326 24.3941C9.238 24.0051 12.7727 23.6261 16.3041 23.2371C19.859 22.8448 23.4105 22.4292 26.9654 22.0501C27.338 22.0102 27.4992 21.8739 27.6267 21.5448C28.8285 18.466 29.2951 15.3074 28.7311 12.0325C28.4659 10.4931 28.0262 8.99693 27.338 7.56726C23.716 8.41842 20.1376 9.25959 16.5223 10.1107C17.6569 11.5238 17.7946 12.7473 16.9822 13.8379C16.2135 14.8719 14.8808 15.2875 13.716 14.7389C13.2158 14.5028 12.7392 14.0972 12.4102 13.6517C11.8731 12.9202 11.8832 12.0491 12.2122 11.1448C12.0275 11.178 11.9302 11.1913 11.8328 11.2113C8.76469 11.9327 5.69654 12.6609 2.6284 13.3757C1.04062 13.7448 1.03726 13.7381 1.19503 15.4105C2.98087 15.8726 3.71601 16.5143 3.74958 17.7312C3.80329 19.5399 2.61833 20.298 1.05404 20.7169V24.8895L1.0574 24.8928Z" fill="white"/>
</svg>
