<svg width="84" height="70" viewBox="0 0 84 70" fill="none" xmlns="http://www.w3.org/2000/svg">
<g clip-path="url(#clip0_455_9492)">
<path d="M65.8824 19.8144C68.1373 19.8144 70.2024 19.6923 72.24 19.8721C73.133 19.9501 74.2604 20.4284 74.7879 21.1001C77.7012 24.8112 80.4456 28.6513 83.2934 32.4168C83.9657 33.3055 84.176 34.1129 83.8485 35.229C82.7969 38.8112 81.8798 42.4308 80.9007 46.0334C80.2318 48.4861 79.7319 48.8558 77.184 48.8558C76.3876 48.8558 75.5912 48.8558 74.7327 48.8558C74.6672 48.5403 74.5948 48.3334 74.5879 48.1265C74.4052 44.0015 71.1919 41.0739 67.0478 41.7422C63.2484 42.3562 60.4247 44.4051 58.6216 47.6516C58.1079 48.5777 57.5493 48.8898 56.4943 48.8796C51.1056 48.8253 45.7133 48.8558 40.4004 48.8558C40.266 48.6218 40.1591 48.5268 40.166 48.4386C40.5418 43.6385 36.4356 40.409 30.8572 42.1493C27.9473 43.0584 25.6787 44.897 24.2548 47.5396C23.6618 48.6387 22.9964 48.9678 21.8483 48.8728C20.9347 48.7982 20.0107 48.8728 19.0901 48.8558C17.3352 48.8219 16.9112 48.3368 17.3318 46.6576C17.9938 44.0252 18.735 41.4131 19.4384 38.7909C19.5832 38.2549 19.7038 37.7121 19.8866 36.9591C17.7179 36.9591 15.7217 36.9591 13.7255 36.9591C9.81924 36.9591 5.90954 36.9591 2.00329 36.9591C1.05172 36.9591 0.0105093 36.976 -0.00328155 35.6937C-0.0170724 34.4047 1.01724 34.4047 1.97226 34.4047C11.2225 34.4047 20.4761 34.4047 29.7263 34.4047C30.2435 34.4047 30.8744 34.5539 31.2468 34.3198C31.7501 34.001 32.3224 33.4005 32.3673 32.8815C32.4017 32.4778 31.7501 31.8774 31.264 31.6128C30.8606 31.3957 30.2538 31.528 29.7367 31.528C22.2655 31.528 14.7977 31.528 7.32655 31.5246C6.81284 31.5246 6.23362 31.6094 5.80266 31.4093C5.40962 31.2261 4.91315 30.6935 4.93384 30.3475C4.96487 29.8997 5.37515 29.3026 5.78887 29.0991C6.25431 28.865 6.90938 28.9736 7.4817 28.9736C17.0767 28.9668 26.6751 28.9702 36.2701 28.9668C36.7872 28.9668 37.4044 29.1296 37.7974 28.9057C38.3628 28.5869 39.1455 27.9729 39.1248 27.5115C39.1041 27.0264 38.3077 26.4803 37.7388 26.1478C37.3975 25.9477 36.8424 26.1037 36.3804 26.1037C26.0959 26.1037 15.8079 26.1037 5.5234 26.0969C5.06485 26.0969 4.30636 26.1207 3.96848 25.9171C3.50304 25.6356 3.2617 25.3167 3.27894 24.8994C3.29618 24.4788 3.4858 24.1396 3.96848 23.8818C4.32704 23.6918 5.15794 23.5425 5.61993 23.5425C14.4702 23.5425 23.3205 23.5425 32.1673 23.5425C32.6845 23.5425 33.3119 23.6884 33.6877 23.4543C34.1911 23.1388 34.6014 22.708 34.6531 22.189C34.691 21.7887 34.2014 21.022 33.7188 20.7608C33.3154 20.5403 32.7086 20.6659 32.1914 20.6659C25.4098 20.6659 18.6316 20.6659 11.8499 20.6659C11.4466 20.6659 11.0639 20.693 10.5191 20.4929C10.2916 20.408 10.2571 20.3606 10.0709 20.2011C9.53308 19.7432 9.53653 18.9222 10.0813 18.4744C10.2847 18.3082 10.4915 18.1861 10.7053 18.1691C13.4083 17.9893 16.132 18.1691 18.8419 18.0809C20.4658 18.0267 22.0862 18.0979 23.7101 18.1352C24.8133 18.1623 25.2374 17.6976 25.4994 16.6935C26.1166 14.3732 26.651 14 28.9713 14C40.8073 14 52.6467 14 64.4827 14C66.9926 14 67.2995 14.4105 66.6513 16.819C66.4065 17.7349 66.1755 18.6576 65.879 19.811L65.8824 19.8144ZM71.8953 32.9392C73.4433 32.9392 74.9913 32.9731 76.5359 32.9256C77.5012 32.8985 78.2425 32.488 77.5047 31.4534C75.6946 28.9159 73.8605 26.3887 71.9022 23.9632C70.792 22.5893 68.6751 23.1151 68.2028 24.7773C67.5856 26.9484 67.0685 29.1466 66.3996 31.3041C66.0273 32.5016 66.2789 33.0002 67.596 32.9527C69.0268 32.9019 70.461 32.9426 71.8953 32.9392Z" fill="#FF9800"/>
<path d="M37.9868 48.2147C38.0109 52.5738 33.2462 56.6106 28.8883 55.922C26.6542 55.5692 25.2337 53.9951 25.12 51.7393C24.9028 47.4819 29.3468 43.384 33.7806 43.7538C36.3836 43.9709 37.973 45.6535 37.9868 48.2113V48.2147ZM34.2702 48.9644C34.2357 47.9636 33.5082 47.2886 32.2395 47.2309C30.6053 47.1563 28.8297 48.8422 28.84 50.423C28.8469 51.7189 29.5537 52.3974 30.8673 52.4279C32.5705 52.4686 34.2495 50.8946 34.2736 48.9644H34.2702Z" fill="#FF9800"/>
<path d="M72.4398 48.3199C72.3985 52.5942 67.6992 56.5428 63.3896 55.9356C60.9348 55.5896 59.3489 53.6085 59.5351 51.1253C59.8454 47.0003 63.9723 43.4723 68.1612 43.7505C70.816 43.9269 72.4674 45.6908 72.4398 48.3199ZM65.21 52.4415C67.058 52.4279 68.7749 50.7929 68.7129 49.2053C68.6646 47.8992 67.8854 47.2581 66.6132 47.2309C64.9825 47.1936 63.1655 48.9407 63.2379 50.4842C63.3 51.7563 64.0481 52.4178 65.2066 52.4449L65.21 52.4415Z" fill="#FF9800"/>
</g>
<defs>
<clipPath id="clip0_455_9492">
<rect width="84" height="70" fill="white"/>
</clipPath>
</defs>
</svg>
