<svg width="25" height="35" viewBox="0 0 25 35" fill="none" xmlns="http://www.w3.org/2000/svg">
<g clip-path="url(#clip0_512_7263)">
<path d="M16.0781 33.5229C16.3629 33.6289 16.6464 33.7364 16.9312 33.8424L16.872 34.0401C16.2666 33.8696 15.6612 33.6977 15.0282 33.52C14.9539 33.9111 14.8769 34.3109 14.7929 34.7492C14.6306 34.318 14.581 33.8066 14.3127 33.5931C14.1104 33.4326 13.6275 33.6533 13.3275 33.6948C13.2711 34.1174 13.2229 34.4684 13.1514 35C13.0028 34.4871 13.0014 34.1131 12.8225 33.957C12.6079 33.7679 12.2446 33.7607 11.8882 33.659C11.7107 34.0759 11.5511 34.4498 11.3915 34.8237C11.3475 34.8237 11.3035 34.8237 11.2594 34.8223C11.3076 34.4384 11.3571 34.0544 11.4108 33.6303C11.1039 33.4856 10.8494 33.3366 10.5673 33.775C10.4283 33.9928 10.0788 34.0687 9.81879 34.1948C9.57249 34.3152 9.31656 34.4183 9.05925 34.5315C9.03861 33.7965 9.9041 34.0472 10.3306 33.4255C9.42939 33.5773 8.68774 33.702 7.94747 33.8266L7.90481 33.6547C8.20753 33.5687 8.50886 33.4828 8.81158 33.3954C8.81846 33.3467 8.82671 33.2994 8.83359 33.2507C8.48272 33.1332 8.13735 32.9412 7.77822 32.9111C5.22305 32.6977 3.37374 31.2464 1.90971 29.2106C-1.32382 24.712 -0.360639 18.6074 4.05622 15.3753C4.71119 14.8954 5.38954 14.4412 6.09128 14.0401C8.94367 12.4068 10.2729 9.7951 10.5536 6.52576C10.6554 5.33951 10.6829 4.14323 10.6788 2.95126C10.676 2.361 10.8508 1.90971 11.3048 1.60742C12.0561 1.10742 12.8225 0.628908 13.6055 0.186214C13.8421 0.0529766 14.3031 -0.0702325 14.4035 0.0443806C14.581 0.249252 14.6333 0.644667 14.6127 0.95269C14.5494 1.90398 14.3375 2.85384 14.3499 3.80083C14.3719 5.43836 14.3994 7.09596 14.6457 8.7077C14.9801 10.8897 16.2955 12.4799 17.9288 13.8252C19.401 15.0386 20.9132 16.2206 22.2576 17.5788C26.4102 21.7779 25.7566 28.1619 20.9105 31.5143C19.4368 32.5344 17.8173 33.1346 16.0781 33.5215V33.5229ZM10.1421 15.3223C10.1036 15.4298 10.0651 15.5372 10.0266 15.6447C9.09227 18.2951 8.24468 20.9713 8.16074 23.828C8.08369 26.4269 8.46896 28.9283 9.8697 31.1547C10.5687 32.2664 11.5663 32.9384 12.8363 33.1619C13.5834 33.2922 14.1641 33.0358 14.5081 32.3438C14.8755 31.6045 15.2484 30.8553 15.5029 30.0687C16.3271 27.5286 16.2157 24.9369 15.7148 22.3553C15.4396 20.9384 15.0557 19.5444 14.7214 18.1404C16.8142 22.9269 17.6026 27.7535 15.0378 32.7249C17.2009 32.9627 18.57 31.5515 19.767 30.1977C22.4103 27.2077 22.5589 23.7249 21.0715 20.073C22.303 22.0143 22.757 24.1189 22.3264 26.4011C21.8984 28.6647 20.7 30.4355 18.9084 31.8667C19.0502 31.8811 19.1025 31.904 19.1355 31.8868C23.7863 29.6146 26.918 23.3911 21.9548 17.9641C20.7619 16.659 19.3144 15.606 17.9714 14.4513C16.3464 13.053 15.0709 11.4011 14.4489 9.26788C13.7678 6.93407 13.805 4.55727 14.0815 2.16902C14.1256 1.78937 14.171 1.41114 14.215 1.03149C14.1214 1.01573 14.0265 1.0014 13.9329 0.985641C13.4789 2.00283 13.6137 3.16472 13.3151 4.23063C13.3564 3.35384 13.3977 2.47705 13.4403 1.59882C13.3825 1.59023 13.3248 1.58163 13.2656 1.5716C13.1445 2.08306 13.0234 2.59596 12.901 3.10742L12.8308 3.09596C12.8556 2.70627 12.8817 2.31802 12.9106 1.8696C12.2818 2.14467 11.7218 2.38965 11.148 2.64037C11.2897 4.70197 11.1851 6.72203 10.6664 8.69911C10.0155 11.1791 8.76617 13.1662 6.46142 14.3338C5.64272 14.7493 4.86529 15.2793 4.13465 15.8495C0.321842 18.828 -0.58905 24.3811 2.07208 28.4398C3.33797 30.371 5.05931 31.6733 7.37094 32.371C2.52615 27.9312 2.58531 21.1876 4.61349 17.9713C4.57359 18.1962 4.50066 18.4097 4.43186 18.6246C3.12744 22.775 3.67921 26.6332 6.14495 30.1705C6.86733 31.2063 7.75208 32.0845 8.91753 32.5616C9.37435 32.7492 9.88621 32.7922 10.3733 32.9011C9.02898 31.3782 8.33136 29.6604 7.94747 27.7836C7.03382 23.3137 8.37127 19.2521 10.1421 15.3237V15.3223ZM11.6901 1.62604C11.7424 1.7163 11.7933 1.80656 11.8456 1.89682C12.6148 1.45842 13.3839 1.02003 14.1545 0.583063C14.1008 0.481343 14.0458 0.379624 13.9921 0.277905C13.2257 0.727762 12.4579 1.17619 11.6915 1.62604H11.6901Z" fill="black"/>
<path d="M10.1436 15.3224C8.37272 19.2507 7.03528 23.3123 7.94892 27.7822C8.33282 29.659 9.03044 31.3768 10.3748 32.8997C9.88766 32.7908 9.3758 32.7479 8.91898 32.5602C7.75354 32.0831 6.86879 31.2049 6.1464 30.1691C3.68066 26.6318 3.1289 22.7736 4.43332 18.6232C4.50074 18.4083 4.57367 18.1948 4.61495 17.9699C2.58677 21.1862 2.52623 27.9298 7.37239 32.3696C5.06076 31.6719 3.33942 30.3696 2.07353 28.4384C-0.587595 24.3782 0.323297 18.8266 4.14024 15.851C4.87088 15.2808 5.6483 14.7493 6.467 14.3352C8.77175 13.1676 10.0211 11.1805 10.672 8.70057C11.1907 6.7235 11.2953 4.70344 11.1536 2.64183C11.7273 2.39112 12.2874 2.14613 12.9162 1.87106C12.8873 2.31948 12.8611 2.70917 12.8364 3.09742L12.9065 3.10888C13.0276 2.59742 13.1487 2.08453 13.2712 1.57307C13.329 1.58166 13.3868 1.59026 13.4459 1.60029C13.4046 2.47708 13.3634 3.35387 13.3207 4.23209C13.6207 3.16619 13.4845 2.0043 13.9385 0.987106C14.0321 1.00287 14.127 1.01719 14.2206 1.03295C14.1766 1.41261 14.1312 1.79083 14.0871 2.17049C13.8106 4.55874 13.7734 6.93553 14.4545 9.26934C15.0764 11.4026 16.3506 13.0544 17.977 14.4527C19.3199 15.6075 20.7675 16.6605 21.9604 17.9656C26.9222 23.3926 23.7918 29.616 19.1411 31.8883C19.108 31.904 19.0558 31.8825 18.914 31.8682C20.7055 30.4355 21.9054 28.6662 22.3319 26.4026C22.7626 24.1203 22.3085 22.0158 21.0771 20.0745C22.5645 23.7264 22.4159 27.2092 19.7726 30.1991C18.5755 31.553 17.2064 32.9642 15.0434 32.7264C17.6082 27.755 16.8198 22.9284 14.727 18.1418C15.0613 19.5458 15.4452 20.9398 15.7204 22.3567C16.2213 24.9384 16.3327 27.5301 15.5085 30.0702C15.2539 30.8553 14.8811 31.606 14.5137 32.3453C14.1697 33.0373 13.589 33.2951 12.8419 33.1633C11.5719 32.9398 10.5743 32.2679 9.87528 31.1562C8.47454 28.9298 8.08927 26.4298 8.16633 23.8295C8.25026 20.9728 9.09923 18.2966 10.0321 15.6461C10.0707 15.5387 10.1092 15.4312 10.1477 15.3238L10.1436 15.3224ZM13.2382 9.94843C13.2244 12.2135 14.9237 15.1533 16.6643 15.8811C14.954 14.2206 13.7252 12.3152 13.2382 9.94843ZM7.50311 27.2493C7.40129 25.9269 7.22241 24.7421 7.24305 23.5602C7.26231 22.4097 7.48522 21.2622 7.63795 19.9585C6.82888 21.8968 6.77109 25.2378 7.50449 27.2493H7.50311ZM13.0125 29.4585C13.0373 29.4585 13.062 29.457 13.0868 29.4556V20.8639H13.0125V29.4585ZM10.9403 31.4398C9.72668 29.3653 8.88321 27.1748 8.83367 24.7106C8.65204 27.2536 9.38681 29.4885 10.9403 31.4398ZM17.2519 21.0215C17.3881 22.3109 17.6275 23.6003 17.633 24.8911C17.6385 26.1748 17.4101 27.4585 17.2821 28.7593C18.127 26.1662 18.116 23.5946 17.2519 21.0215ZM12.2323 4.49714C11.92 6.53152 11.609 8.56447 11.2967 10.5989C12.0287 8.63037 12.2763 6.58023 12.2323 4.49714ZM17.7967 31.159C19.4933 29.9398 20.5776 28.2837 21.0922 26.2249C20.2556 28.0602 19.2842 29.7951 17.7967 31.159ZM15.5415 25.4828C15.2828 27.2077 15.0008 29.0874 14.7311 30.8926C15.4246 29.1504 15.7796 27.2808 15.5415 25.4828ZM3.80588 30.0602C3.07386 28.7693 2.33772 27.4728 1.65111 26.2636C1.92493 27.7393 2.68309 29.0287 3.80588 30.0602ZM6.83301 30.3066C6.08861 28.6977 5.42127 27.2564 4.78694 25.8854C5.03049 27.457 5.7171 28.8997 6.83301 30.3066ZM10.2578 16.8553C10.3335 16.8868 10.4092 16.9183 10.4848 16.9513C10.8481 15.6318 11.2127 14.3109 11.576 12.9914C11.5086 12.9713 11.4411 12.9513 11.3751 12.9298C11.0022 14.2378 10.6307 15.5473 10.2578 16.8553ZM13.3524 16.6347C13.4198 16.6189 13.4872 16.6032 13.5532 16.5874C13.2808 15.3266 13.007 14.0645 12.7345 12.8037L12.5323 12.8524C12.8047 14.1132 13.0785 15.3739 13.351 16.6361L13.3524 16.6347ZM15.7355 13.7722C15.6777 13.8238 15.6213 13.8768 15.5635 13.9284L17.2697 15.8639C17.3165 15.8195 17.3633 15.7751 17.4101 15.7292C16.8514 15.0774 16.2928 14.4241 15.7342 13.7722H15.7355ZM9.23133 13.7135C9.16528 13.6791 9.10061 13.6447 9.03456 13.6103C8.61352 14.4112 8.19385 15.2106 7.7728 16.0115C7.83059 16.043 7.88838 16.0759 7.94617 16.1075C8.3741 15.3095 8.80202 14.5115 9.22995 13.7135H9.23133ZM22.4737 28.3883C22.5425 28.4226 22.6099 28.457 22.6787 28.4914C23.0227 27.7693 23.3653 27.0473 23.7093 26.3252C23.646 26.2937 23.5813 26.2607 23.518 26.2292C23.1699 26.9484 22.8218 27.6691 22.475 28.3883H22.4737Z" fill="white"/>
<path d="M11.6903 1.62608C12.4568 1.17622 13.2245 0.727796 13.991 0.277939C14.0446 0.379658 14.0997 0.481377 14.1533 0.583096C13.3842 1.02149 12.615 1.45989 11.8445 1.89685C11.7922 1.80659 11.7413 1.71633 11.689 1.62608H11.6903Z" fill="white"/>
<path d="M13.2369 9.94843C13.724 12.3152 14.9527 14.2221 16.6631 15.8811C14.9225 15.1519 13.2231 12.212 13.2369 9.94843Z" fill="black"/>
<path d="M7.50171 27.2493C6.76832 25.2378 6.82748 21.8968 7.63518 19.9585C7.48382 21.2622 7.26092 22.4083 7.24028 23.5602C7.21964 24.7421 7.39851 25.9269 7.50033 27.2493H7.50171Z" fill="black"/>
<path d="M13.0125 29.4599V20.8682H13.0868V29.4585C13.062 29.4585 13.0372 29.4599 13.0125 29.4613V29.4599Z" fill="black"/>
<path d="M10.9403 31.4398C9.38688 29.4885 8.65211 27.2536 8.83374 24.7106C8.88327 27.1748 9.72674 29.3653 10.9403 31.4398Z" fill="black"/>
<path d="M17.252 21.0215C18.1147 23.5946 18.1271 26.1662 17.2822 28.7593C17.4102 27.4584 17.6386 26.1748 17.6331 24.8911C17.6276 23.6003 17.3882 22.3109 17.252 21.0215Z" fill="black"/>
<path d="M12.2323 4.49713C12.2777 6.58023 12.0286 8.62894 11.2966 10.5989C11.609 8.56447 11.9199 6.53152 12.2323 4.49713Z" fill="black"/>
<path d="M17.7969 31.159C19.2843 29.7966 20.2557 28.0602 21.0923 26.2249C20.5777 28.2837 19.4934 29.9384 17.7969 31.159Z" fill="black"/>
<path d="M15.5416 25.4814C15.7797 27.2794 15.4233 29.149 14.7312 30.8911C15.0023 29.086 15.2843 27.2063 15.5416 25.4814Z" fill="black"/>
<path d="M3.80589 30.0587C2.6831 29.0272 1.92632 27.7378 1.65112 26.2622C2.33773 27.4713 3.0725 28.7679 3.80589 30.0587Z" fill="black"/>
<path d="M6.8344 30.3052C5.71849 28.8997 5.03325 27.4556 4.78833 25.884C5.42265 27.255 6.09 28.6963 6.8344 30.3052Z" fill="black"/>
<path d="M10.2593 16.8539C10.6322 15.5458 11.0037 14.2364 11.3766 12.9284C11.444 12.9484 11.5114 12.9685 11.5775 12.99C11.2142 14.3094 10.8496 15.6304 10.4863 16.9499C10.4106 16.9183 10.335 16.8868 10.2593 16.8539Z" fill="black"/>
<path d="M13.3539 16.6332C13.0814 15.3725 12.8076 14.1117 12.5352 12.8496L12.7374 12.8009C13.0099 14.0616 13.2837 15.3238 13.5561 16.5845C13.4887 16.6003 13.4213 16.616 13.3552 16.6318L13.3539 16.6332Z" fill="black"/>
<path d="M15.737 13.7708C16.2957 14.4226 16.8543 15.0759 17.413 15.7278C17.3662 15.7722 17.3194 15.8166 17.2726 15.8625L15.5664 13.9269C15.6242 13.8754 15.6806 13.8223 15.7384 13.7708H15.737Z" fill="black"/>
<path d="M9.23279 13.712C8.80486 14.51 8.37693 15.308 7.94901 16.106C7.89122 16.0745 7.83343 16.0416 7.77563 16.01C8.19668 15.2092 8.61635 14.4097 9.0374 13.6089C9.10345 13.6433 9.16812 13.6777 9.23416 13.712H9.23279Z" fill="black"/>
<path d="M22.4765 28.3868C22.8246 27.6676 23.1727 26.947 23.5195 26.2278C23.5828 26.2593 23.6474 26.2923 23.7107 26.3238C23.3667 27.0458 23.0241 27.7679 22.6801 28.49C22.6113 28.4556 22.5439 28.4212 22.4751 28.3868H22.4765Z" fill="black"/>
</g>
<defs>
<clipPath id="clip0_512_7263">
<rect width="25" height="35" fill="white"/>
</clipPath>
</defs>
</svg>
