<svg width="82" height="68" viewBox="0 0 82 68" fill="none" xmlns="http://www.w3.org/2000/svg">
<path d="M30.2756 47.8911C30.3826 47.8911 30.4716 47.9266 30.543 47.9977C30.6137 48.0688 30.65 48.1574 30.65 48.264C30.65 48.3707 30.6143 48.4592 30.543 48.5303C30.4716 48.6014 30.3826 48.6369 30.2756 48.6369H29.7414V57.9483H29.0203V48.6369H27.284C26.5895 48.6369 26.0021 48.3978 25.5212 47.9188C25.0402 47.4398 24.8 46.8548 24.8 46.1632V37.1181C24.8 36.4445 25.0402 35.8679 25.5212 35.3889C26.0021 34.91 26.5895 34.6708 27.284 34.6708C27.7287 34.6708 28.1431 34.7816 28.526 35.0033C28.909 35.2251 29.2072 35.5221 29.4208 35.8944C29.6343 36.2668 29.7414 36.6752 29.7414 37.1181V47.8923H30.2756V47.8911ZM27.2834 47.8911H29.0197V37.1169C29.0197 36.656 28.8503 36.2565 28.5121 35.9197C28.1733 35.5829 27.7644 35.4142 27.2834 35.4142C26.9628 35.4142 26.6688 35.4902 26.402 35.6402C26.1346 35.7908 25.9253 35.9993 25.774 36.2656C25.6228 36.5318 25.5472 36.8156 25.5472 37.1169V46.1619C25.5472 46.6409 25.716 47.0488 26.0547 47.3856C26.3929 47.723 26.8025 47.8911 27.2834 47.8911Z" fill="#FF9800"/>
<path d="M32.7063 35.5209C33.1873 35.0419 33.7705 34.8027 34.4559 34.8027C35.1413 34.8027 35.7245 35.0419 36.2054 35.5209C36.6864 35.9999 36.9266 36.5849 36.9266 37.2765V48.3966C36.9266 48.5032 36.8909 48.5918 36.8195 48.6629C36.7481 48.734 36.6634 48.7695 36.566 48.7695C36.4686 48.7695 36.3791 48.734 36.2986 48.6629C36.2188 48.5924 36.1782 48.5032 36.1782 48.3966V37.2765H36.2048C36.2048 36.7976 36.0355 36.3897 35.6973 36.0529C35.3585 35.7161 34.9495 35.5474 34.4686 35.5474C33.9877 35.5474 33.5781 35.7161 33.2399 36.0529C32.9011 36.3903 32.7324 36.7976 32.7324 37.2765V58.0803H31.9846V37.2765C31.9846 36.5849 32.2248 35.9993 32.7057 35.5209H32.7063Z" fill="#FF9800"/>
<path d="M43.2043 48.5297V55.6595C43.2043 56.3337 42.9641 56.9054 42.4832 57.3754C42.0022 57.8453 41.4233 58.0803 40.7469 58.0803C40.0706 58.0803 39.4644 57.8411 38.9841 57.3621C38.5031 56.8832 38.2629 56.2981 38.2629 55.6065V53.8774C38.2629 53.7707 38.2986 53.6822 38.37 53.6111C38.4414 53.54 38.5303 53.5044 38.6374 53.5044C38.7445 53.5044 38.8334 53.54 38.9048 53.6111C38.9756 53.6822 39.0119 53.7707 39.0119 53.8774V55.6065C39.0119 56.0855 39.1807 56.4933 39.5194 56.8301C39.8576 57.1675 40.2672 57.3356 40.7481 57.3356C41.2291 57.3356 41.6386 57.1675 41.9768 56.8301C42.315 56.4933 42.4844 56.0855 42.4844 55.6065V48.5297C42.4844 48.0688 42.315 47.67 41.9768 47.3326C41.6386 46.9958 41.2291 46.8271 40.7481 46.8271C40.0536 46.8271 39.4656 46.5837 38.9853 46.0957C38.5043 45.6083 38.2642 45.0275 38.2642 44.3533V37.2765C38.2642 36.5849 38.5043 35.9993 38.9853 35.5209C39.4662 35.0419 40.0494 34.8027 40.7348 34.8027C41.4202 34.8027 42.0034 35.0419 42.4844 35.5209C42.9653 35.9999 43.2055 36.5849 43.2055 37.2765V39.0858C43.2055 39.1924 43.1698 39.281 43.0984 39.3521C43.027 39.4232 42.9423 39.4587 42.8449 39.4587C42.7475 39.4587 42.6622 39.4232 42.5908 39.3521C42.5195 39.2816 42.4838 39.1924 42.4838 39.0858V37.2765C42.4838 36.7976 42.3144 36.3897 41.9762 36.0529C41.638 35.7161 41.2285 35.5474 40.7475 35.5474C40.2666 35.5474 39.857 35.7161 39.5188 36.0529C39.1807 36.3897 39.0113 36.7976 39.0113 37.2765V44.3533C39.0113 44.8323 39.1801 45.2402 39.5188 45.5769C39.857 45.9143 40.2666 46.0824 40.7475 46.0824C41.4239 46.0824 42.0028 46.3216 42.4838 46.8006C42.9647 47.2796 43.2049 47.8561 43.2049 48.5297H43.2043Z" fill="#FF9800"/>
<path d="M50.2296 55.4733C50.3004 55.5444 50.3367 55.6378 50.3367 55.7529C50.3367 55.8679 50.2967 55.9655 50.2163 56.0457C50.1358 56.1258 50.0427 56.1656 49.9356 56.1656C49.8285 56.1656 49.7396 56.1216 49.6682 56.0324L49.4812 55.8728C49.4099 56.4939 49.1425 57.0169 48.6797 57.4422C48.2163 57.8682 47.6645 58.0809 47.0233 58.0809C46.3288 58.0809 45.7408 57.8417 45.2604 57.3627C44.7801 56.8837 44.5393 56.2987 44.5393 55.6071V35.1756C44.5393 35.069 44.575 34.9804 44.6464 34.9093C44.7172 34.8389 44.8067 34.8027 44.9138 34.8027C44.9846 34.8027 45.0475 34.8208 45.1007 34.8557C45.154 34.8913 45.1987 34.9359 45.2344 34.9889C45.2701 35.0419 45.2876 35.1046 45.2876 35.175V55.6065C45.2876 56.0854 45.4564 56.4933 45.7952 56.8301C46.1334 57.1675 46.5429 57.3356 47.0239 57.3356C47.5048 57.3356 47.9144 57.1675 48.2526 56.8301C48.5907 56.4933 48.7601 56.0854 48.7601 55.6065V55.1275L47.7982 54.1695C47.7087 54.0991 47.6645 54.0057 47.6645 53.89C47.6645 53.7743 47.7087 53.6815 47.7982 53.6104C47.9761 53.4152 48.163 53.4152 48.359 53.6104L48.7595 54.0093V35.1738C48.7595 35.0672 48.7952 34.9786 48.8666 34.9075C48.9374 34.8371 49.0269 34.8009 49.134 34.8009C49.1697 34.8009 49.2139 34.8099 49.2677 34.8274C49.3209 34.8455 49.3609 34.872 49.3881 34.9069C49.4147 34.9425 49.4371 34.9829 49.4546 35.0268C49.4722 35.0714 49.4812 35.1202 49.4812 35.1732V54.7533L50.229 55.4715L50.2296 55.4733Z" fill="#FF9800"/>
<path d="M56.2933 39.4581C56.3465 39.4581 56.404 39.4762 56.4669 39.5111C56.5292 39.5467 56.5776 39.5913 56.6139 39.6443C56.6496 39.6973 56.6672 39.76 56.6672 39.8304V58.0803H55.9194V53.4249H54.1566C53.4796 53.4249 52.9013 53.1857 52.4203 52.7067C51.9394 52.2278 51.6992 51.6427 51.6992 50.9511V35.1751C51.6992 35.0684 51.7349 34.9799 51.8063 34.9088C51.8771 34.8383 51.9666 34.8021 52.0737 34.8021C52.1808 34.8021 52.2697 34.8377 52.3411 34.9088C52.4119 34.9799 52.4482 35.0684 52.4482 35.1751V50.9511C52.4482 51.4301 52.6169 51.8379 52.9557 52.1747C53.2939 52.5121 53.7035 52.6802 54.1844 52.6802H55.9206V39.8304C55.9206 39.7238 55.9563 39.6352 56.0277 39.5642C56.0991 39.4931 56.188 39.4575 56.2951 39.4575L56.2933 39.4581Z" fill="#FF9800"/>
<path d="M40.3505 63.9909C33.1563 63.8535 25.9881 63.6378 19.1454 60.9381C8.99469 56.934 0.901494 45.7284 5.16104 32.9744C7.74544 25.2361 10.5047 17.7406 16.5404 11.9224C21.8199 6.83447 28.2071 4.2956 35.4812 4.03894C46.5399 3.64793 56.7565 6.16872 65.6265 13.087C75.5666 20.8404 80.4106 35.1632 76.8183 45.9911C74.6187 52.622 69.9871 56.9509 63.8158 59.8042C56.3778 63.2432 48.4443 64.0975 40.3505 63.9915V63.9909ZM39.843 5.8723C26.0595 5.70421 17.1224 10.8368 11.7473 21.4923C9.61296 25.7229 8.07394 30.3018 6.7043 34.8536C4.18221 43.2365 7.08482 50.0711 13.5906 55.52C18.3819 59.5331 24.1793 60.9538 30.2833 61.5846C39.2997 62.5166 48.2967 62.6714 57.0892 60.2633C66.6362 57.6485 74.3234 52.7172 75.8098 41.9689C77.1208 32.4888 74.1123 24.1691 67.5025 17.3098C59.5043 9.01003 49.2048 6.24885 39.843 5.8723Z" fill="#FF9800"/>
<path d="M41.2757 61.3567C37.4578 61.3567 33.8728 61.0729 30.7221 60.747C27.3398 60.3975 24.6259 59.8559 22.1819 59.0419C19.2417 58.0635 16.7541 56.7013 14.5763 54.877C7.84545 49.2395 5.60043 42.4983 7.90413 34.8414C9.10075 30.8644 10.6144 26.2228 12.7699 21.95C15.4087 16.7193 18.8576 12.9622 23.3144 10.4649C27.8177 7.94108 33.2587 6.75479 39.946 6.83552H39.9496C44.9738 7.03796 49.6345 7.93084 53.8033 9.49006C58.7622 11.3451 63.0943 14.1714 66.6781 17.8911C69.8971 21.2319 72.2153 24.9245 73.568 28.8665C74.9522 32.9002 75.3375 37.2338 74.7132 41.7464C74.366 44.2588 73.6455 46.5494 72.5717 48.5545C71.5674 50.43 70.2202 52.1176 68.5686 53.5708C65.6581 56.1301 61.7404 58.0599 56.5916 59.4703C51.3895 60.8952 46.1445 61.3567 41.2769 61.3567H41.2757ZM39.3047 7.0729C32.9514 7.0729 27.7548 8.25316 23.4329 10.6751C19.0197 13.1483 15.6023 16.8717 12.9858 22.0585C10.8388 26.315 9.32943 30.9439 8.13583 34.9107C5.86238 42.467 8.08139 49.1226 14.7317 54.6926C19.7529 58.8979 25.9284 60.0089 30.7475 60.5072C44.3538 61.9134 51.6714 60.5674 56.5268 59.2377C61.64 57.8376 65.5263 55.9247 68.4083 53.39C70.0387 51.9561 71.3678 50.2909 72.3581 48.4412C73.4186 46.4615 74.13 44.1979 74.4737 41.7139C75.0925 37.2386 74.7108 32.9423 73.3394 28.9449C71.9982 25.0365 69.6987 21.3734 66.5039 18.0586C62.9449 14.3654 58.6436 11.5584 53.7186 9.7166C49.5746 8.16641 44.9394 7.27835 39.9418 7.07712C39.7282 7.07471 39.5159 7.0735 39.3053 7.0735L39.3047 7.0729Z" fill="#FF9800"/>
<path d="M39.87 9.54004V25.54C39.83 25.54 39.79 25.54 39.75 25.54V9.54004C39.79 9.54004 39.83 9.54004 39.87 9.54004Z" fill="#FF9800"/>
<path d="M40.782 14.1213V10.9884C40.8023 10.9884 40.8225 10.9884 40.8428 10.9884V14.1213H40.782Z" fill="#FF9800"/>
<path d="M38.7251 14.1213V10.9884C38.7656 10.9884 38.8062 10.9884 38.8467 10.9884V14.1213H38.7251Z" fill="#FF9800"/>
<path d="M37.8179 12.3146V14.0592L37.7571 14.0612V12.3166C37.7774 12.316 37.7976 12.3153 37.8179 12.314V12.3146Z" fill="#FF9800"/>
<path d="M41.8714 12.314V14.0585C41.8513 14.0592 41.8306 14.0605 41.8105 14.0612V12.3153C41.8306 12.3153 41.8513 12.3146 41.8714 12.314Z" fill="#FF9800"/>
<path d="M36.6152 14.8729C37.9967 14.6617 39.2246 15.6528 39.2679 16.9886C39.2815 17.4004 39.2145 17.4602 38.7792 17.4276C37.4153 17.3267 36.5157 16.2752 36.6152 14.8729Z" fill="#FF9800"/>
<path d="M43.0126 17.701C43.1106 19.0763 42.2878 20.0738 40.9334 20.2481C40.4283 20.313 40.3289 20.2242 40.3654 19.7411C40.4648 18.4334 41.6474 17.5108 43.0126 17.701Z" fill="#FF9800"/>
<path d="M36.616 20.4734C37.9895 20.2734 39.1985 21.2552 39.2662 22.5998C39.2892 23.0572 39.2012 23.1369 38.7341 23.0842C37.368 22.9288 36.5097 21.8815 36.6166 20.4734H36.616Z" fill="#FF9800"/>
<path d="M43.0073 20.4672C43.1445 21.8749 42.1937 23.0027 40.8272 23.0953C40.4913 23.1183 40.346 23.0202 40.3595 22.6491C40.4082 21.2955 41.5962 20.2928 43.0073 20.4672Z" fill="#FF9800"/>
<path d="M36.6311 17.6411C37.9998 17.4386 39.2285 18.4768 39.2691 19.8797C39.2779 20.1933 39.1378 20.2707 38.8636 20.2666C37.4915 20.2464 36.4354 19.0218 36.6311 17.6411Z" fill="#FF9800"/>
<path d="M43.0067 14.864C43.1479 16.2425 42.1917 17.3529 40.8279 17.4326C40.5002 17.4518 40.3447 17.3695 40.3596 16.9992C40.413 15.6691 41.5916 14.6954 43.0067 14.8633V14.864Z" fill="#FF9800"/>
</svg>
