<svg width="29" height="30" viewBox="0 0 29 30" fill="none" xmlns="http://www.w3.org/2000/svg">
<g clip-path="url(#clip0_512_7253)">
<path d="M8.68897 14.3427C11.3652 14.4008 13.5439 16.1372 14.2347 18.7689C14.6895 20.5016 14.5379 22.2053 13.907 23.8653C13.0536 26.1129 11.6012 27.8759 9.47021 29.0561C8.3711 29.6656 7.1864 30.0012 5.92101 30.0012C3.29487 30 1.12965 28.3812 0.343524 25.8342C-0.169966 24.1694 -0.0868297 22.5058 0.458449 20.87C1.25436 18.4806 2.72637 16.6109 4.9356 15.3411C6.10196 14.671 7.47004 14.3172 8.68775 14.3439L8.68897 14.3427ZM4.17881 20.8264C4.20571 21.0154 4.2216 21.2068 4.2595 21.3934C4.33653 21.7727 4.66296 22.0065 5.00406 21.9375C5.39041 21.8599 5.60925 21.534 5.54201 21.1366C5.3953 20.2678 5.93935 19.2996 6.76094 18.9616C7.09471 18.8247 7.41625 18.8368 7.73412 19.0161C8.063 19.2027 8.4469 19.1046 8.63518 18.798C8.82712 18.4854 8.72932 18.0977 8.39799 17.8941C7.93341 17.6094 7.42603 17.5027 6.88686 17.5912C5.39041 17.8371 4.19226 19.2803 4.17759 20.8264H4.17881Z" fill="black"/>
<path d="M15.8142 19.9951C15.8301 18.4224 16.2653 16.7757 17.3571 15.3483C18.5614 13.7744 20.1593 12.9504 22.1766 13.0522C23.5863 13.1225 24.8027 13.6993 25.8652 14.5971C27.468 15.9518 28.4082 17.6917 28.8129 19.7225C29.1723 21.5316 29.0317 23.2994 28.2725 24.997C27.6563 26.3746 26.7308 27.4894 25.337 28.1498C23.6034 28.9725 21.8758 28.8586 20.1997 27.9825C18.5834 27.138 17.4696 25.8161 16.7055 24.1936C16.1089 22.9274 15.8203 21.5897 15.8154 19.9939L15.8142 19.9951ZM20.7266 16.5067C20.6178 16.5394 20.5041 16.5612 20.4026 16.6085C19.872 16.8533 19.4918 17.2483 19.2387 17.7681C18.5345 19.2124 19.0345 21.145 20.3782 22.175C20.6948 22.4185 21.1081 22.3785 21.3452 22.0804C21.5739 21.7933 21.5188 21.4189 21.1973 21.1632C20.8599 20.8942 20.6117 20.5622 20.4405 20.172C20.2253 19.6813 20.1508 19.176 20.2889 18.649C20.4063 18.2006 20.6948 17.9086 21.0995 17.693C21.3465 17.5609 21.4247 17.2483 21.3391 16.9817C21.2511 16.7079 21.0102 16.5285 20.7266 16.5091V16.5067Z" fill="black"/>
<path d="M15.8827 10.9996C15.604 11.1644 15.3265 11.3086 15.0697 11.4843C14.3215 11.9993 13.5818 12.5276 12.836 13.0474C12.7712 13.0922 12.6869 13.1382 12.6123 13.1382C10.7637 13.1382 8.96528 12.8656 7.24998 12.1568C4.54071 11.0384 2.66769 9.09244 1.50622 6.44371C1.46098 6.3395 1.41575 6.2353 1.37418 6.12867C1.19079 5.65127 1.48421 5.21143 2.00259 5.21143C2.56377 5.21143 3.12616 5.22233 3.68733 5.24899C4.96739 5.30957 6.24012 5.44528 7.49572 5.707C9.80399 6.18804 11.9105 7.08832 13.7102 8.632C14.4902 9.30085 15.1785 10.0533 15.7972 10.87C15.8253 10.9075 15.8485 10.9475 15.8815 10.9984L15.8827 10.9996Z" fill="#3EAE03"/>
<path d="M17.076 10.355C16.6896 9.88974 16.3168 9.41112 15.9109 8.96038C15.5661 8.57627 15.1822 8.22731 14.8191 7.85896C14.7653 7.80564 14.7127 7.74264 14.6846 7.67357C13.8043 5.44408 13.3263 3.13704 13.2957 0.737912C13.2896 0.264144 13.7359 -0.151462 14.2616 0.0533119C17.1982 1.19956 18.9845 3.27154 19.4759 6.38434C19.6312 7.36338 19.5493 8.34363 19.3353 9.31055C19.3219 9.36871 19.2657 9.4402 19.2106 9.46322C18.5003 9.76493 17.7875 10.0582 17.0735 10.355H17.076Z" fill="#3EAE03"/>
<path d="M14.0256 15.4623C13.7102 15.1484 13.4143 14.8528 13.0989 14.5377C13.4388 14.2675 13.8055 13.967 14.1821 13.6811C16.5185 11.9023 19.1617 10.7428 21.9676 9.91761C23.074 9.59167 24.1988 9.34206 25.342 9.17485C25.4312 9.16152 25.5217 9.15183 25.6122 9.14819C25.9728 9.13365 26.2748 9.38084 26.3115 9.71526C26.3494 10.063 26.1049 10.355 25.7381 10.4253C24.9031 10.5865 24.0607 10.721 23.2367 10.9282C20.4993 11.6152 17.9184 12.6705 15.5869 14.2712C15.0917 14.6117 14.6271 14.997 14.1491 15.3629C14.0965 15.4029 14.0476 15.4453 14.0244 15.4635L14.0256 15.4623Z" fill="#3EAE03"/>
<path d="M4.17773 20.8264C4.19241 19.2803 5.38933 17.8372 6.88701 17.5912C7.42495 17.5027 7.93355 17.6094 8.39814 17.8941C8.73069 18.0977 8.82849 18.4842 8.63532 18.798C8.44704 19.1046 8.06315 19.2015 7.73427 19.0161C7.41639 18.8368 7.09607 18.8235 6.76108 18.9616C5.9395 19.2997 5.39544 20.2678 5.54215 21.1366C5.6094 21.534 5.39055 21.8612 5.00421 21.9375C4.66311 22.0053 4.33667 21.7727 4.25965 21.3934C4.22175 21.2068 4.20463 21.0154 4.17896 20.8264H4.17773Z" fill="white"/>
<path d="M20.7256 16.5079C21.0092 16.5273 21.2501 16.7067 21.3381 16.9805C21.4249 17.2483 21.3454 17.5609 21.0985 17.6918C20.6938 17.9086 20.4052 18.1995 20.2879 18.6478C20.1497 19.1749 20.2243 19.6801 20.4395 20.1709C20.6106 20.561 20.8588 20.8942 21.1963 21.162C21.5178 21.4177 21.5728 21.7921 21.3442 22.0793C21.107 22.3761 20.6938 22.4161 20.3771 22.1738C19.0347 21.1438 18.5347 19.2112 19.2377 17.7669C19.4907 17.2483 19.871 16.8521 20.4016 16.6073C20.503 16.56 20.618 16.5395 20.7256 16.5055V16.5079Z" fill="white"/>
</g>
<defs>
<clipPath id="clip0_512_7253">
<rect width="29" height="30" fill="white"/>
</clipPath>
</defs>
</svg>
