<svg width="29" height="31" viewBox="0 0 29 31" fill="none" xmlns="http://www.w3.org/2000/svg">
<g clip-path="url(#clip0_512_3897)">
<path d="M14.4779 30.9911C13.646 30.9911 12.8171 30.9853 11.9851 30.997C11.775 31 11.6874 30.9382 11.7283 30.7324C11.7954 30.4031 11.6349 30.3061 11.3342 30.2355C8.69838 29.6152 6.28439 28.5185 4.18857 26.7722C2.22993 25.1404 0.822989 23.1382 0.259627 20.6068C-0.394223 17.6756 0.201248 14.9796 1.83295 12.4923C3.43547 10.052 5.58675 8.19979 8.01242 6.6445C8.80346 6.13587 9.62661 5.68016 10.4644 5.25385C11.3225 4.81872 11.9384 4.17191 12.2537 3.23991C12.5573 2.33731 12.8258 1.42001 13.2607 0.564452C13.3687 0.352768 13.5147 0.223405 13.7336 0.158724C14.5422 -0.088241 15.3303 -0.0559003 16.098 0.323368C16.2906 0.417449 16.3753 0.517411 16.314 0.758496C16.2177 1.13188 16.1797 1.52291 16.1651 1.911C16.1242 2.94002 16.5096 3.77206 17.2948 4.42181C17.7005 4.75698 18.1325 5.05098 18.6025 5.29207C21.3696 6.7033 23.8829 8.46146 25.9262 10.84C27.3098 12.4511 28.3985 14.2357 28.8013 16.3555C29.3793 19.4102 28.705 22.1945 26.8398 24.6641C25.1322 26.925 22.8466 28.398 20.2575 29.4358C19.3935 29.7828 18.5061 30.0591 17.5983 30.2561C17.3473 30.309 17.2305 30.3972 17.2772 30.6589C17.3269 30.9323 17.2159 31.0058 16.9445 31C16.1242 30.9823 15.304 30.9941 14.4809 30.9941L14.4779 30.9911ZM17.7647 6.54454C17.7443 6.52395 17.7238 6.50337 17.7063 6.48573C17.7092 6.39753 17.6625 6.34167 17.5896 6.30639C17.5691 6.28581 17.5487 6.26523 17.5312 6.24465C17.5108 6.22407 17.4903 6.20349 17.4728 6.18585C17.4524 6.16527 17.4349 6.14763 17.4144 6.12705L17.3911 6.11235C17.3911 6.11235 17.4086 6.12117 17.4174 6.12411C17.4378 6.14469 17.4553 6.16233 17.4757 6.18291C17.4962 6.20349 17.5166 6.22407 17.5341 6.24171L17.5954 6.30051C17.5954 6.38577 17.6392 6.44163 17.7122 6.47985L17.7705 6.5416L17.8289 6.6004C17.8494 6.62098 17.8669 6.64156 17.8873 6.6592C17.8902 6.66802 17.8931 6.67684 17.899 6.68272C17.9019 6.68566 17.9107 6.68272 17.9165 6.68566C17.9077 6.67684 17.8961 6.66802 17.8873 6.6592C17.8669 6.63862 17.8464 6.62098 17.8289 6.6004C17.8085 6.57982 17.7881 6.55924 17.7705 6.5416L17.7647 6.54454ZM18.1821 6.96202C18.1821 6.96202 18.1763 6.94438 18.1704 6.9385C18.1675 6.93556 18.1588 6.9385 18.15 6.93556C18.1588 6.94438 18.1704 6.9532 18.1792 6.96496C18.1996 6.98554 18.2201 7.00318 18.2405 7.02377C18.2347 7.07669 18.2493 7.11785 18.2989 7.14431C18.3193 7.16489 18.3368 7.18547 18.3573 7.20605C18.3777 7.22663 18.3981 7.24721 18.4156 7.26485C18.4361 7.28543 18.4536 7.30601 18.474 7.32659C18.4799 7.40009 18.5178 7.44419 18.5937 7.44713C18.6141 7.46771 18.6346 7.48535 18.6521 7.50594C18.6492 7.55886 18.6638 7.60002 18.7134 7.62354C18.7893 7.797 18.9177 7.93224 19.0637 8.04691C19.0958 8.17039 19.1717 8.25565 19.2943 8.29387C19.2943 8.39089 19.3556 8.45557 19.411 8.52908C19.9656 9.25233 20.4998 9.99029 20.9814 10.7665C22.1782 12.6951 23.1123 14.7238 23.4217 17.0053C23.5881 18.2372 23.5735 19.4573 23.3078 20.6745C22.9342 22.3826 22.1811 23.9085 21.1128 25.2786C20.4969 26.0695 19.843 26.8221 19.0958 27.4954C18.8593 27.71 18.5587 27.8688 18.4098 28.1775C18.3602 28.1775 18.3193 28.1922 18.293 28.2392C18.1821 28.2598 18.1121 28.3304 18.0595 28.4245C17.9807 28.4656 17.8873 28.4891 17.8785 28.6009C17.826 28.5979 17.7851 28.6097 17.7618 28.6626C17.6888 28.6773 17.61 28.6861 17.61 28.7949C17.7034 28.7949 17.753 28.7508 17.7589 28.6597C17.8114 28.6656 17.8552 28.6538 17.8785 28.6009C17.9807 28.5832 18.0566 28.5391 18.0566 28.4215C18.185 28.4333 18.2755 28.3892 18.3018 28.251C18.3514 28.251 18.3923 28.2334 18.4156 28.1863C18.4915 28.1804 18.5382 28.1305 18.5937 28.0864C19.7584 27.1573 20.8267 26.1283 21.7228 24.9317C23.229 22.9207 24.0814 20.6921 23.9442 18.1254C23.8916 17.1464 23.7136 16.1968 23.4275 15.2677C22.8437 13.3655 21.8717 11.6661 20.7304 10.0579C20.2896 9.43756 19.8518 8.81132 19.3147 8.26741C19.2797 8.14393 19.2038 8.05867 19.0812 8.02339C19.014 7.83816 18.9235 7.67352 18.7163 7.61472C18.7221 7.5618 18.7075 7.52064 18.655 7.49712C18.6346 7.47653 18.6171 7.45595 18.5966 7.43831C18.5908 7.36481 18.5558 7.32071 18.4799 7.31777C18.4594 7.29719 18.439 7.27955 18.4186 7.25897C18.3981 7.23839 18.3806 7.21781 18.3602 7.19723C18.3397 7.17959 18.3193 7.15901 18.2989 7.14137C18.3047 7.08845 18.2901 7.04729 18.2405 7.02082C18.2201 7.00024 18.2026 6.97966 18.1821 6.95908V6.96202ZM11.3138 28.7067C11.2933 28.6891 11.2729 28.6685 11.2525 28.6508C11.2145 28.6273 11.1795 28.6038 11.1416 28.5773C11.124 28.5244 11.0919 28.4862 11.0306 28.4803C10.9956 28.4421 10.9606 28.4009 10.9256 28.3627C11.3751 28.448 11.8246 28.5332 12.2741 28.6214C12.4434 28.6567 12.6215 28.6773 12.7616 28.7979C12.7849 28.8714 12.8258 28.9302 12.8988 28.9625C12.9251 28.989 12.9513 29.0184 12.9776 29.0448C12.9864 29.0331 12.9951 29.0213 13.0039 29.0095C12.9718 28.989 12.9426 28.9713 12.9105 28.9507C12.9105 28.8655 12.8579 28.8126 12.7966 28.7685C12.8375 28.7067 12.8988 28.7126 12.9572 28.7214C13.7394 28.8596 14.5305 28.8478 15.3186 28.839C15.9141 28.8331 16.422 28.6273 16.816 28.1628C18.188 26.5428 19.2913 24.7641 19.9715 22.7413C20.5523 21.0155 20.8121 19.2456 20.7012 17.411C20.6136 16.0027 20.3684 14.6326 19.9569 13.2949C19.3322 11.2692 18.3981 9.38757 17.2948 7.58532C17.1663 7.37657 17.0729 7.13843 16.8569 6.96496C16.8336 7.09727 16.9036 7.15901 16.9474 7.23251C17.8318 8.75546 18.5995 10.3343 19.1804 12.0013C20.097 14.6326 20.5144 17.3257 20.1524 20.1159C19.9102 21.9887 19.3351 23.7527 18.4594 25.4197C18.4507 25.4374 18.4156 25.4462 18.3952 25.4579C18.3602 25.3991 18.3894 25.355 18.404 25.308C18.8447 23.8762 19.0257 22.4003 19.0753 20.9097C19.1074 19.9365 19.1045 18.9634 19.0403 17.9873C18.9644 16.8465 18.8535 15.7146 18.6754 14.5885C18.3135 12.2982 17.7939 10.0491 16.8219 7.9293C16.4862 7.20311 16.0746 6.52395 15.4325 6.02708C15.2953 5.92124 15.161 5.8301 15.1406 5.6243C15.126 5.82716 15.0296 5.8301 14.8778 5.80364C14.5655 5.75072 14.2503 5.73602 13.9379 5.8154C13.9263 5.7566 13.9175 5.70074 13.9 5.62136C13.8591 5.70368 13.8299 5.76248 13.8007 5.82128C13.576 5.8154 13.3629 5.87714 13.144 5.91536C13.0593 5.93006 12.9484 6.01238 12.928 5.83892C12.9455 5.82128 12.9747 5.80658 12.9396 5.78306C12.9396 5.78306 12.9163 5.80364 12.9046 5.8154C12.8054 5.89184 12.7353 6.00356 12.601 6.04178C12.2449 6.14175 11.8917 6.24759 11.5181 6.35931C11.559 6.27111 11.5882 6.20349 11.6203 6.13587C11.6319 6.12411 11.6524 6.10647 11.6524 6.10647C11.6232 6.06825 11.6174 6.10647 11.6057 6.12117C11.3459 6.41811 11.0102 6.58864 10.6512 6.7327C10.1024 6.9532 9.58867 7.24427 9.06617 7.52358C8.72173 7.7088 8.424 7.97928 8.04453 8.09983C8.25178 7.71762 8.6254 7.49712 8.9319 7.21193C9.64996 6.54748 10.4439 5.97122 11.2087 5.36557C11.2525 5.34205 11.343 5.32147 11.2904 5.25973C11.2437 5.20387 11.197 5.28031 11.1649 5.32147C11.0773 5.36557 10.9839 5.40085 10.9022 5.45083C8.98736 6.6592 7.31479 8.15569 5.794 9.82858C5.71811 9.82858 5.66848 9.87856 5.61594 9.9256C4.83658 10.6018 4.12435 11.3398 3.50261 12.1689C2.60064 13.3743 1.95263 14.6973 1.62279 16.1762C1.36884 17.3081 1.29586 18.4488 1.40678 19.6013C1.46516 20.1952 1.57608 20.7744 1.79501 21.333C2.22993 22.4297 2.9013 23.3676 3.68942 24.2261C3.98132 24.5436 4.29365 24.8493 4.66144 25.0816C6.42158 27.0779 8.53492 28.5626 11.0131 29.5799C10.9752 29.4388 10.8789 29.4182 10.8059 29.3741C10.3447 29.1066 9.87181 28.8537 9.41936 28.5715C8.58162 28.0452 7.76139 27.4925 7.03748 26.8104C7.37025 26.9103 7.65922 27.1073 7.97155 27.2514C8.77135 27.613 9.57407 27.9658 10.4322 28.1687C10.5461 28.2157 10.6628 28.2628 10.7767 28.3098C10.7767 28.351 10.8 28.3686 10.838 28.3686C10.8526 28.4333 10.9051 28.4597 10.9547 28.4921C10.9927 28.5597 11.054 28.5979 11.127 28.6185C11.1649 28.6391 11.1999 28.6626 11.2379 28.6832C11.2583 28.7038 11.2788 28.7214 11.2992 28.742C11.3225 28.7596 11.343 28.7773 11.3663 28.7949C11.4101 28.8596 11.4685 28.9008 11.5415 28.9184C11.5911 28.9801 11.6436 29.0331 11.7283 29.0272C11.7399 29.036 11.7516 29.0448 11.7633 29.0536C11.7545 29.0419 11.7458 29.0301 11.737 29.0184C11.7049 28.9449 11.6436 28.9066 11.5677 28.889C11.5269 28.8243 11.4714 28.7802 11.3955 28.7655C11.3751 28.7449 11.3546 28.7273 11.3342 28.7067H11.3138ZM17.4728 28.9037C17.4728 28.9037 17.4582 28.9066 17.4524 28.9125C17.4495 28.9125 17.4495 28.9213 17.4465 28.9272C17.4553 28.9184 17.4641 28.9096 17.4699 28.9037C17.4757 28.9037 17.4845 28.8978 17.4903 28.8949C17.4932 28.8949 17.4932 28.8861 17.4962 28.8802C17.4874 28.889 17.4816 28.8978 17.4728 28.9066V28.9037ZM17.2918 4.99218C17.2918 4.99218 17.2772 4.97454 17.2685 4.96572C17.2685 4.9716 17.2685 4.97748 17.2743 4.98042C17.2802 4.9863 17.2889 4.9863 17.2948 4.98924C17.3152 5.00982 17.3356 5.0304 17.3531 5.04804C17.3736 5.06275 17.394 5.07745 17.4144 5.09215C17.4203 5.08039 17.4232 5.07156 17.429 5.0598C17.4028 5.05686 17.3765 5.05393 17.3531 5.05098C17.3327 5.0304 17.3123 5.00982 17.2948 4.99218H17.2918ZM13.0272 5.65664C13.0447 5.63312 13.0622 5.61254 13.0798 5.58902C13.0944 5.56844 13.1089 5.55079 13.1235 5.53021C13.1119 5.52433 13.1031 5.51845 13.0914 5.50963C13.0856 5.53315 13.0798 5.55962 13.0739 5.58314C13.0535 5.60078 13.0301 5.62136 13.0097 5.639C12.9922 5.65076 12.9601 5.65958 12.9951 5.68898C13.0039 5.67722 13.0155 5.66546 13.0243 5.6537L13.0272 5.65664ZM11.7896 4.94808C11.8246 4.92456 11.8625 4.90104 11.8976 4.87752C11.9063 4.86576 11.9151 4.854 11.9238 4.84224C11.9122 4.85106 11.9005 4.85988 11.8888 4.8687C11.8392 4.8687 11.7954 4.88046 11.7662 4.92456C11.7429 4.9422 11.7224 4.95984 11.6991 4.97748C11.6436 4.98924 11.5823 4.98924 11.5561 5.05098C11.5502 5.06275 11.5619 5.09509 11.5677 5.09803C11.6465 5.11567 11.6874 5.05687 11.7283 5.00688C11.7487 4.98924 11.7721 4.9716 11.7925 4.95102L11.7896 4.94808ZM11.4159 5.13919C11.3838 5.16859 11.3109 5.20093 11.4159 5.23033C11.4539 5.21857 11.486 5.19505 11.4772 5.15095C11.4714 5.11567 11.4422 5.12155 11.4159 5.13919ZM17.8289 29.624C17.8552 29.6181 17.8785 29.6122 17.9048 29.6064C17.899 29.5946 17.8931 29.5858 17.8844 29.574C17.864 29.5887 17.8435 29.6034 17.826 29.6211C17.7997 29.6299 17.7735 29.6387 17.7443 29.6475C17.7501 29.6563 17.7618 29.6711 17.7618 29.6711C17.7851 29.6563 17.8056 29.6416 17.8289 29.6269V29.624ZM16.5854 6.5416C16.5854 6.5416 16.5621 6.52395 16.5504 6.51513C16.5592 6.5269 16.5679 6.5416 16.5738 6.55336C16.5738 6.60334 16.5884 6.64744 16.6351 6.6739C16.6467 6.68272 16.6584 6.69154 16.673 6.70036L16.6497 6.6592C16.6497 6.60922 16.6351 6.56512 16.5884 6.5416H16.5854ZM17.6538 5.22739C17.645 5.18035 17.6334 5.13625 17.5721 5.13919C17.5662 5.13919 17.5516 5.15095 17.5516 5.15683C17.5516 5.21857 17.5983 5.22739 17.645 5.23621C17.6947 5.33029 17.7764 5.35969 17.8756 5.36557C17.8902 5.48317 17.9953 5.51551 18.0712 5.57432C19.7554 6.8356 21.3229 8.22037 22.6832 9.84034C23.8508 11.231 24.8432 12.7304 25.5058 14.4327C26.1918 16.1997 26.4895 18.0284 26.1859 19.9189C25.8357 22.0857 24.8169 23.9232 23.3545 25.5197C22.079 26.9133 20.5815 28.0276 18.9557 28.9684C18.6462 29.1477 18.3368 29.3271 18.0011 29.5211C18.1471 29.5828 18.2171 29.5093 18.293 29.4741C18.9732 29.1771 19.627 28.8302 20.2692 28.4539C22.2074 27.319 23.88 25.896 25.0943 23.9673C26.0225 22.4914 26.5421 20.8832 26.6647 19.1486C26.7435 18.0137 26.618 16.8877 26.3377 15.7822C25.6956 13.242 24.3558 11.0987 22.616 9.19059C21.7345 8.22331 20.7683 7.33835 19.7117 6.56218C19.122 6.12999 18.5499 5.67134 17.8931 5.33911C17.8377 5.25091 17.7589 5.21269 17.6567 5.22151L17.6538 5.22739ZM11.1095 29.6328C11.2262 29.7152 11.3488 29.7887 11.5239 29.7945C11.4305 29.671 11.3284 29.6269 11.2087 29.6211C11.1766 29.5887 11.1445 29.5564 11.0919 29.5711C11.0978 29.5917 11.1036 29.6122 11.1124 29.6299L11.1095 29.6328ZM16.7489 6.88264C16.7664 6.87676 16.7927 6.87088 16.7956 6.86206C16.7956 6.84736 16.7898 6.8209 16.7752 6.81208C16.746 6.79444 16.7197 6.80326 16.7197 6.83854C16.7197 6.85324 16.7372 6.86794 16.7489 6.88264ZM11.6465 29.8122C11.6465 29.8122 11.6319 29.821 11.6261 29.8239L11.6378 29.8416C11.6378 29.8416 11.6582 29.8269 11.667 29.821L11.6465 29.8122ZM16.4891 6.38283L16.4804 6.39753H16.495L16.4891 6.38283Z" fill="#AB0247"/>
<path d="M13.9233 5.8125C14.2356 5.73312 14.5509 5.74782 14.8632 5.80074C15.015 5.8272 15.1113 5.82426 15.1259 5.6214C15.1463 5.8272 15.2806 5.91834 15.4178 6.02419C16.0629 6.52106 16.4745 7.20021 16.8072 7.92641C17.7822 10.0432 18.2988 12.2924 18.6608 14.5856C18.8388 15.7117 18.9498 16.8465 19.0257 17.9844C19.0899 18.9605 19.0928 19.9336 19.0607 20.9068C19.0111 22.3974 18.833 23.8733 18.3893 25.3051C18.3747 25.3521 18.3455 25.3962 18.3806 25.455C18.4039 25.4433 18.436 25.4345 18.4448 25.4168C19.3205 23.7498 19.8984 21.9858 20.1378 20.113C20.4968 17.3258 20.0823 14.6327 19.1658 11.9984C18.5849 10.3314 17.8172 8.75256 16.9328 7.22961C16.889 7.15611 16.8189 7.09143 16.8423 6.96207C17.0583 7.13553 17.1517 7.37367 17.2801 7.58242C18.3806 9.38468 19.3176 11.2663 19.9422 13.292C20.3538 14.6327 20.6019 15.9998 20.6866 17.4081C20.8004 19.2427 20.5377 21.0126 19.9568 22.7384C19.2767 24.7612 18.1733 26.5429 16.8014 28.1599C16.4073 28.6244 15.8994 28.8302 15.304 28.8361C14.5158 28.8449 13.7248 28.8567 12.9425 28.7185C12.8871 28.7097 12.8228 28.7009 12.782 28.7656C12.7732 28.7744 12.7615 28.7832 12.7499 28.792C12.6098 28.6744 12.4317 28.6509 12.2624 28.6156C11.8129 28.5274 11.3634 28.4421 10.9138 28.3569C10.8788 28.3569 10.8438 28.3569 10.8088 28.3569C10.7883 28.3363 10.7679 28.3157 10.7475 28.2951C10.7533 28.2099 10.6862 28.1805 10.6336 28.1364C9.69079 27.3455 8.83261 26.4752 8.06784 25.508C6.77765 23.8704 5.86693 22.0652 5.56628 19.9689C5.38822 18.7252 5.43492 17.4934 5.68304 16.2732C6.22013 13.6654 7.48404 11.3986 9.01066 9.26413C9.3084 8.84665 9.67327 8.48208 9.92138 8.02637C10.0294 7.93229 10.1695 7.86172 10.187 7.66768C10.006 7.74118 9.94474 7.87055 9.91263 8.02049C9.74916 8.04695 9.67619 8.18807 9.57986 8.29685C9.46311 8.42622 9.41056 8.61144 9.23251 8.682C9.26753 8.535 9.42224 8.3733 9.28213 8.24393C9.14202 8.11457 8.96688 8.23217 8.81217 8.28803C8.74796 8.31155 8.68666 8.34389 8.62536 8.3733C8.02113 8.68494 7.44901 9.05245 6.91484 9.47582C6.66965 9.66986 6.43029 9.86979 6.1851 10.0697C6.20261 9.83451 6.41278 9.73454 6.54121 9.5846C6.92944 9.12301 7.31182 8.6526 7.77886 8.26451L7.84599 8.19983H7.84016C7.8927 8.20571 7.9394 8.19983 7.96275 8.14103C7.98319 8.12339 8.00362 8.10281 8.02405 8.08223H8.02113C8.4006 7.96169 8.69833 7.6912 9.04277 7.50598C9.56235 7.22667 10.079 6.93855 10.6278 6.7151C10.9868 6.57104 11.3225 6.40051 11.5823 6.10357L11.5969 6.11827C11.5648 6.18589 11.5356 6.25351 11.4947 6.34171C11.8683 6.23293 12.2215 6.12415 12.5777 6.02419C12.709 5.98597 12.782 5.87424 12.8812 5.7978C12.89 5.80662 12.8958 5.81544 12.9046 5.82132C12.925 5.99479 13.0388 5.91246 13.1206 5.89776C13.3395 5.85954 13.5526 5.7978 13.7773 5.80368L13.7949 5.82132C13.7949 5.87718 13.7598 5.93893 13.8153 5.99773C13.8416 5.93304 13.8678 5.87424 13.8912 5.81544L13.9145 5.7978L13.9233 5.8125ZM12.5455 28.5392C12.5251 28.5186 12.5047 28.5009 12.4872 28.4804C12.4755 28.3863 12.4551 28.301 12.3237 28.251C12.3354 28.3833 12.4054 28.4363 12.4842 28.4804C12.5047 28.5009 12.5222 28.5215 12.5426 28.5392C12.5514 28.548 12.5631 28.5568 12.5718 28.5627C12.5631 28.5539 12.5543 28.5451 12.5455 28.5333V28.5392ZM10.584 7.25901C10.5636 7.27959 10.5431 7.30017 10.5256 7.31781C10.4147 7.32663 10.3563 7.38838 10.3476 7.49716C10.333 7.52068 10.3154 7.54126 10.3038 7.56478C10.3038 7.56478 10.3184 7.57654 10.3271 7.57948C10.3359 7.55302 10.3446 7.52656 10.3534 7.5001C10.4643 7.49422 10.5198 7.42954 10.5315 7.32075C10.5519 7.30017 10.5723 7.27959 10.5898 7.26195C10.6103 7.24137 10.6278 7.22079 10.6686 7.12083C10.6599 7.13847 10.6511 7.15611 10.6482 7.17375C10.6395 7.20609 10.6482 7.21491 10.6716 7.18845C10.6832 7.17669 10.6891 7.15611 10.692 7.13847C10.692 7.13847 10.6774 7.12965 10.6453 7.20315C10.6249 7.22373 10.6044 7.24137 10.584 7.26195V7.25901ZM12.4229 6.54164C12.3762 6.5681 12.3646 6.6122 12.3646 6.66218C12.3558 6.671 12.3471 6.68276 12.3412 6.69158C12.35 6.68276 12.3616 6.67394 12.3704 6.66806C12.4171 6.6416 12.4288 6.5975 12.4317 6.54752C12.4405 6.5387 12.4463 6.52694 12.4551 6.51812C12.4463 6.52694 12.4346 6.53576 12.4259 6.54164H12.4229ZM10.8233 6.96207C10.8088 6.98265 10.7912 7.00617 10.7766 7.02675C10.7854 7.03263 10.7912 7.03557 10.8 7.04145C10.8088 7.01499 10.8146 6.98853 10.8233 6.96207C10.8292 6.96207 10.8379 6.95619 10.8438 6.95325C10.8467 6.95325 10.8467 6.94149 10.8496 6.93561C10.8409 6.94443 10.8321 6.95325 10.8233 6.96207ZM15.1551 28.4833C15.3624 28.1187 15.4879 27.7218 15.6192 27.3279C16.0541 26.0195 16.3898 24.6848 16.6204 23.3235C16.816 22.1504 16.9619 20.9685 16.9882 19.7807C17.0262 18.0637 17.0232 16.3438 16.8335 14.6297C16.7197 13.6066 16.6117 12.5805 16.4424 11.5662C16.1767 9.95505 15.8323 8.35566 15.4324 6.77096C15.3769 6.54458 15.3769 6.28879 15.1697 6.02125C15.3186 6.83858 15.4645 7.5736 15.59 8.31155C15.8703 9.96093 16.0921 11.6162 16.241 13.2832C16.3431 14.4092 16.4015 15.5382 16.454 16.6643C16.5124 17.9079 16.454 19.1516 16.4015 20.3923C16.3782 20.9568 16.3344 21.5212 16.2731 22.0828C16.1943 22.8002 16.0804 23.5146 15.9958 24.232C15.8907 25.1169 15.6951 25.9872 15.5171 26.8604C15.4061 27.4043 15.2281 27.9306 15.1639 28.4833C15.1376 28.5039 15.088 28.5186 15.1405 28.5627C15.1463 28.5362 15.1551 28.5098 15.1609 28.4833H15.1551ZM13.8357 28.3745C11.915 20.9803 12.3325 13.5831 13.7744 6.18001C13.7248 6.24175 13.6956 6.30349 13.6781 6.36817C13.2315 8.17631 12.8228 9.99033 12.5309 11.8308C12.2799 13.4067 12.0814 14.9884 12.023 16.579C11.9472 18.5635 11.9705 20.554 12.2536 22.5267C12.5134 24.3261 12.9308 26.0901 13.5555 27.7983C13.6285 27.9982 13.681 28.2099 13.8357 28.3745ZM12.1865 7.01793C12.1573 7.00323 12.131 6.98853 12.1019 6.97383C12.0143 7.11495 11.9413 7.26489 11.8362 7.39131C11.7282 7.52362 11.664 7.67944 11.5764 7.8235C10.438 9.6875 9.51273 11.6456 8.92018 13.7536C8.5232 15.1619 8.29844 16.5937 8.26925 18.0608C8.25757 18.6782 8.31303 19.2897 8.38309 19.9013C8.5553 21.3625 8.9552 22.7561 9.56235 24.0909C10.1928 25.4815 11.0277 26.7428 11.9763 27.9335C12.0201 27.9894 12.0639 28.0658 12.1632 28.0335C12.1602 27.9159 12.0814 27.8453 12.026 27.7689C10.8788 26.1959 9.97393 24.4995 9.40181 22.6267C9.05153 21.4771 8.82385 20.2982 8.7538 19.1016C8.71293 18.3813 8.73628 17.6551 8.78298 16.9259C8.85888 15.7617 9.06029 14.6239 9.36386 13.5066C9.87176 11.6309 10.6219 9.84921 11.5589 8.14985C11.7662 7.77352 11.9763 7.3972 12.1836 7.01793H12.1865ZM12.2828 6.8474C12.2741 6.8327 12.2682 6.80918 12.2595 6.80624C12.2449 6.8033 12.2215 6.81212 12.2157 6.82388C12.2011 6.85034 12.2157 6.8768 12.2478 6.8768C12.2595 6.8768 12.2712 6.85622 12.2858 6.84446L12.2828 6.8474ZM12.5806 6.37405C12.5747 6.35935 12.5689 6.33289 12.5601 6.32995C12.5485 6.32701 12.5309 6.33877 12.5134 6.34465C12.5222 6.36229 12.5309 6.38287 12.5397 6.40051C12.5514 6.39169 12.566 6.38287 12.5806 6.37111V6.37405ZM13.8912 28.5421C13.8912 28.5421 13.8854 28.5274 13.8795 28.5245C13.8766 28.5245 13.8678 28.5303 13.862 28.5333C13.8678 28.5421 13.8766 28.5539 13.8824 28.5627C13.8854 28.5568 13.8883 28.548 13.8912 28.5421ZM18.3397 25.6256C18.3397 25.6256 18.3397 25.6109 18.3426 25.602C18.3339 25.602 18.3222 25.6079 18.3134 25.6079C18.3134 25.6138 18.3164 25.6226 18.3222 25.6285C18.3222 25.6285 18.3339 25.6285 18.3397 25.6256Z" fill="#C3517E"/>
<path d="M10.4148 28.1628C9.55665 27.96 8.75393 27.6072 7.95414 27.2455C7.63889 27.1044 7.35283 26.9074 7.02006 26.8045L7.0259 26.8075C7.00255 26.7869 6.98212 26.7634 6.95877 26.7428C6.92082 26.731 6.87411 26.731 6.85076 26.7046C6.14437 26.0137 5.43798 25.3227 4.84835 24.523C3.43265 22.6149 2.64452 20.5099 2.73793 18.0902C2.78463 16.9171 3.00939 15.7911 3.40637 14.6974C3.63405 14.0682 3.88509 13.442 4.24412 12.8716C4.03979 13.8212 4.74326 14.1681 5.35333 14.0535C5.65107 13.9976 5.89042 13.8212 6.12686 13.6389C6.11518 13.7066 6.1181 13.7801 6.08891 13.8389C5.69193 14.7415 5.41463 15.6793 5.2103 16.6437C5.07311 17.2846 5.02057 17.9432 5.0264 18.59C5.02932 19.0281 5.05268 19.4779 5.11397 19.9218C5.27452 21.0861 5.64231 22.1798 6.1794 23.2118C6.57638 23.9762 7.05217 24.6936 7.6097 25.3551C8.21684 26.0754 8.87653 26.7428 9.57417 27.3778C9.85439 27.6336 10.2047 27.8188 10.4177 28.1511L10.4148 28.1628Z" fill="#C3517E"/>
<path d="M4.6442 25.0787C4.27349 24.8465 3.96408 24.5407 3.67219 24.2232C2.88406 23.3647 2.2127 22.4297 1.77777 21.3301C1.55593 20.7715 1.44501 20.1923 1.38955 19.5984C1.27863 18.4459 1.35452 17.3052 1.60555 16.1733C1.9354 14.6944 2.58341 13.3714 3.48537 12.166C4.10419 11.3369 4.81934 10.5989 5.59871 9.92271C5.65125 9.87567 5.70087 9.82568 5.77677 9.82568C5.7826 9.91683 5.71839 9.96681 5.66876 10.0285C5.47027 10.2755 5.26594 10.5166 5.07621 10.7694C4.24722 11.8896 3.58753 13.1097 3.09131 14.4122C2.42578 16.1645 2.16308 17.9814 2.40827 19.8454C2.62719 21.5036 3.2431 23.0177 4.18301 24.3996C4.33771 24.6259 4.55955 24.8053 4.6442 25.0758V25.0787Z" fill="#C3517E"/>
<path d="M4.64412 25.0787C4.55947 24.8053 4.33471 24.6259 4.18292 24.4025C3.24301 23.0207 2.62711 21.5065 2.40818 19.8483C2.16299 17.9843 2.4257 16.1674 3.09122 14.4151C3.58745 13.1097 4.24422 11.8925 5.07613 10.7724C5.26294 10.5195 5.46727 10.2755 5.66868 10.0315C5.7183 9.96974 5.78252 9.91976 5.77668 9.82862C7.30038 8.15572 8.97004 6.65923 10.8849 5.45087C10.9666 5.39794 11.06 5.36266 11.1476 5.3215C11.1622 5.3362 11.1768 5.3509 11.1914 5.3656C10.4237 5.97126 9.63264 6.54751 8.91458 7.21196C8.60808 7.49421 8.23737 7.71471 8.02721 8.09986H8.03013C7.98342 8.09398 7.96299 8.11456 7.96883 8.1616C7.90753 8.13808 7.8725 8.1763 7.84623 8.22334L7.85207 8.2204C7.82872 8.24098 7.80828 8.26156 7.78493 8.28508C7.3179 8.67317 6.93551 9.14358 6.54729 9.60517C6.42177 9.75511 6.20869 9.85508 6.19117 10.0903V10.0815C6.17074 10.102 6.15031 10.1226 6.12988 10.1432V10.1403C6.10944 10.1726 6.08901 10.202 6.06858 10.2343C5.333 11.0311 4.69666 11.8984 4.23838 12.8892C3.87935 13.4596 3.62831 14.0829 3.40064 14.715C3.00365 15.8087 2.77597 16.9318 2.73219 18.1078C2.63878 20.5275 3.42691 22.6326 4.84261 24.5407C5.43516 25.3404 6.13863 26.0313 6.84502 26.7222C6.86838 26.7457 6.918 26.7487 6.95303 26.7604C6.97638 26.781 6.99681 26.8045 7.02016 26.8251L7.01432 26.8222C7.73823 27.5043 8.55846 28.057 9.39621 28.5833C9.84865 28.8684 10.3215 29.1184 10.7827 29.3859C10.8557 29.4271 10.952 29.4476 10.99 29.5917C8.51176 28.5744 6.3955 27.0897 4.63828 25.0934L4.64412 25.0787Z" fill="#D281A0"/>
<path d="M17.8906 5.33914C18.5473 5.67137 19.1194 6.13002 19.7091 6.56221C20.7657 7.33838 21.729 8.22334 22.6135 9.19062C24.3532 11.0987 25.693 13.242 26.3352 15.7822C26.6154 16.8877 26.7409 18.0108 26.6621 19.1486C26.5395 20.8832 26.0199 22.4915 25.0917 23.9674C23.8774 25.896 22.2077 27.319 20.2666 28.4539C19.6244 28.8273 18.9706 29.1742 18.2905 29.4741C18.2146 29.5064 18.1445 29.5829 17.9986 29.5211C18.3342 29.3271 18.6437 29.1478 18.9531 28.9684C20.5819 28.0276 22.0764 26.9133 23.352 25.5197C24.8173 23.9203 25.836 22.0857 26.1834 19.9189C26.4869 18.0284 26.1892 16.1997 25.5032 14.4327C24.8436 12.7305 23.8482 11.234 22.6806 9.84037C21.3204 8.2204 19.7529 6.83563 18.0686 5.57435C17.9927 5.51555 17.8876 5.4832 17.873 5.3656L17.8906 5.34502V5.33914Z" fill="#C3517E"/>
<path d="M10.4147 28.1628C10.2016 27.8306 9.85427 27.6454 9.57113 27.3896C8.87641 26.7546 8.21672 26.0901 7.60666 25.3668C7.04913 24.7053 6.57626 23.988 6.17636 23.2235C5.63927 22.1886 5.27148 21.0979 5.11093 19.9336C5.04964 19.4897 5.02628 19.0398 5.02336 18.6018C5.01753 17.952 5.07299 17.2964 5.20726 16.6554C5.41159 15.694 5.68889 14.7532 6.08587 13.8506C6.11214 13.7889 6.11214 13.7154 6.12382 13.6507V13.6595C6.14425 13.636 6.16468 13.6095 6.18804 13.586C6.43323 13.2832 6.61129 12.9421 6.78059 12.5923C7.46071 11.2046 8.36267 9.95799 9.24128 8.6967C9.41934 8.62614 9.47188 8.44092 9.58864 8.31155C9.68496 8.20277 9.75794 8.06459 9.9214 8.03519L9.93016 8.04401C9.68205 8.49678 9.31717 8.86428 9.01944 9.28177C7.49282 11.4163 6.22598 13.683 5.69181 16.2909C5.44078 17.511 5.39407 18.7429 5.57505 19.9865C5.8757 22.0828 6.78642 23.888 8.07661 25.5256C8.84138 26.4929 9.69956 27.3631 10.6424 28.154C10.6949 28.1981 10.7621 28.2275 10.7562 28.3128C10.6424 28.2657 10.5256 28.2187 10.4118 28.1717L10.4147 28.1628Z" fill="#D281A0"/>
<path d="M18.4131 28.1746C18.559 27.8659 18.8597 27.7071 19.099 27.4925C19.8463 26.8222 20.5001 26.0666 21.116 25.2757C22.1844 23.9056 22.9375 22.3797 23.3111 20.6716C23.5767 19.4573 23.5943 18.2342 23.425 17.0024C23.1155 14.7209 22.1786 12.6922 20.9847 10.7635C20.5031 9.98737 19.9689 9.24942 19.4143 8.52616C19.3588 8.45266 19.3004 8.38798 19.2975 8.29096C19.3063 8.28214 19.3121 8.27332 19.3209 8.2645C19.858 8.80841 20.2987 9.43464 20.7366 10.055C21.8779 11.6632 22.8499 13.3655 23.4337 15.2648C23.7198 16.1968 23.8978 17.1435 23.9504 18.1225C24.0876 20.6863 23.2352 22.9148 21.729 24.9288C20.8329 26.1254 19.7646 27.1544 18.5999 28.0834C18.5444 28.1275 18.4977 28.1775 18.4218 28.1834L18.4102 28.1716L18.4131 28.1746Z" fill="#C3517E"/>
<path d="M18.7192 7.61475C18.9265 7.67355 19.017 7.83525 19.0841 8.02341L19.0637 8.044C18.9177 7.92639 18.7922 7.79409 18.7134 7.61769H18.7192V7.61475Z" fill="#C3517E"/>
<path d="M11.2062 29.6152C11.3288 29.6211 11.4309 29.6623 11.5214 29.7887C11.3463 29.7828 11.2266 29.7093 11.1069 29.627C11.139 29.6241 11.1712 29.6182 11.2033 29.6152H11.2062Z" fill="#C3517E"/>
<path d="M19.2946 8.29098C19.172 8.24982 19.0961 8.1675 19.064 8.04402L19.0844 8.02344C19.2099 8.05872 19.2829 8.14398 19.3208 8.26746C19.3121 8.27628 19.3033 8.2851 19.2975 8.29392L19.2946 8.29098Z" fill="#C3517E"/>
<path d="M18.0625 28.4216C18.115 28.3275 18.1851 28.2569 18.296 28.2363L18.3077 28.251C18.2814 28.3863 18.1909 28.4333 18.0625 28.4216Z" fill="#C3517E"/>
<path d="M17.8727 5.35973C17.7764 5.35385 17.6917 5.32444 17.6421 5.23036L17.6508 5.22154C17.753 5.21566 17.8347 5.25094 17.8873 5.33914L17.8698 5.35973H17.8727Z" fill="#C3517E"/>
<path d="M17.7651 28.6597C17.7592 28.7508 17.7067 28.792 17.6162 28.7949C17.6162 28.6862 17.695 28.6773 17.768 28.6626L17.7651 28.6597Z" fill="#C3517E"/>
<path d="M18.0628 28.4216C18.0628 28.5421 17.9898 28.5862 17.8848 28.6009C17.8906 28.4863 17.9869 28.4627 18.0657 28.4245L18.0628 28.4216Z" fill="#C3517E"/>
<path d="M11.7224 4.99809C11.6816 5.04807 11.6407 5.10687 11.5619 5.08923C11.5531 5.08923 11.5444 5.05395 11.5502 5.04219C11.5765 4.98045 11.6407 4.98045 11.6962 4.96869C11.7049 4.97751 11.7137 4.98633 11.7254 4.99809H11.7224Z" fill="#C3517E"/>
<path d="M13.7861 5.81839C13.8153 5.75959 13.8445 5.70079 13.8854 5.61847C13.9 5.69785 13.9116 5.75371 13.9233 5.81251L13.9 5.83015C13.8679 5.83015 13.8357 5.83309 13.8007 5.83603L13.7832 5.81839H13.7861Z" fill="#C3517E"/>
<path d="M11.1068 28.6156C11.0338 28.595 10.9725 28.5568 10.9346 28.4862C10.9667 28.4862 10.9988 28.4804 11.0309 28.4774C11.0922 28.4833 11.1214 28.5215 11.1418 28.5744C11.1301 28.5891 11.1214 28.6009 11.1097 28.6156H11.1068Z" fill="#C3517E"/>
<path d="M11.028 28.4774C10.9959 28.4774 10.9638 28.4833 10.9317 28.4862C10.885 28.4539 10.8295 28.4274 10.8149 28.3628C10.85 28.3628 10.885 28.3628 10.92 28.3628C10.9551 28.401 10.9901 28.4421 11.0251 28.4804L11.028 28.4774Z" fill="#D281A0"/>
<path d="M11.7078 29.0243C11.6232 29.0302 11.5677 28.9772 11.521 28.9155C11.5298 28.9067 11.5385 28.8949 11.5473 28.8861C11.6232 28.9037 11.6845 28.942 11.7166 29.0155L11.7107 29.0214L11.7078 29.0243Z" fill="#C3517E"/>
<path d="M11.1475 5.31857C11.1825 5.27741 11.2263 5.20097 11.273 5.25683C11.3226 5.31857 11.235 5.33915 11.1912 5.36267C11.1767 5.34797 11.1621 5.33327 11.1475 5.31857Z" fill="#D281A0"/>
<path d="M17.6422 5.23035C17.5955 5.22153 17.5488 5.21271 17.5488 5.15097C17.5488 5.14509 17.5605 5.13333 17.5693 5.13333C17.6306 5.13333 17.6422 5.17449 17.651 5.22153L17.6422 5.23035Z" fill="#C3517E"/>
<path d="M18.4829 7.31488C18.5588 7.31782 18.5938 7.36192 18.5996 7.43542L18.5938 7.4413C18.5179 7.4413 18.4829 7.39426 18.4741 7.32076L18.48 7.31488H18.4829Z" fill="#C3517E"/>
<path d="M12.7909 28.7714C12.8551 28.8155 12.9077 28.8655 12.9047 28.9537L12.896 28.9655C12.8259 28.9331 12.7821 28.8743 12.7588 28.8008C12.7705 28.792 12.7792 28.7832 12.7909 28.7744V28.7714Z" fill="#C3517E"/>
<path d="M16.7489 6.88269C16.7402 6.86799 16.7197 6.85329 16.7197 6.83859C16.7197 6.80331 16.7489 6.79155 16.7752 6.81213C16.7869 6.82095 16.7985 6.84741 16.7956 6.86211C16.7956 6.87093 16.7664 6.87681 16.7489 6.88269Z" fill="#C3517E"/>
<path d="M11.5213 28.9155C11.4454 28.8978 11.3871 28.8567 11.3462 28.792C11.3549 28.7832 11.3666 28.7714 11.3754 28.7626C11.4513 28.7773 11.5067 28.8214 11.5476 28.8861C11.5388 28.8949 11.5301 28.9037 11.5213 28.9155Z" fill="#C3517E"/>
<path d="M17.7067 6.47988C17.6338 6.4446 17.5871 6.38874 17.59 6.30054C17.6629 6.33876 17.7126 6.39462 17.7067 6.48282V6.47988Z" fill="#C3517E"/>
<path d="M12.9047 28.9508C12.9369 28.9714 12.966 28.989 12.9981 29.0096C12.9894 29.0213 12.9806 29.0331 12.9719 29.0449C12.9456 29.0184 12.9193 28.989 12.8931 28.9625L12.9018 28.9508H12.9047Z" fill="#C3517E"/>
<path d="M17.7646 28.6597C17.788 28.6068 17.8289 28.595 17.8814 28.598C17.858 28.6509 17.8143 28.6627 17.7617 28.6568L17.7646 28.6597Z" fill="#C3517E"/>
<path d="M18.2988 7.13846C18.2492 7.11494 18.2346 7.07083 18.2405 7.01791C18.2901 7.04143 18.3076 7.0826 18.2988 7.13846Z" fill="#C3517E"/>
<path d="M11.2179 28.6803C11.1799 28.6597 11.1449 28.6362 11.1069 28.6156C11.1186 28.6039 11.1303 28.5892 11.139 28.5745C11.177 28.598 11.212 28.6215 11.25 28.648C11.2383 28.6597 11.2266 28.6685 11.2179 28.6803Z" fill="#C3517E"/>
<path d="M18.4214 28.1864C18.3981 28.2334 18.3543 28.2481 18.3076 28.251L18.2959 28.2363C18.3193 28.1893 18.363 28.1746 18.4127 28.1746L18.4243 28.1864H18.4214Z" fill="#C3517E"/>
<path d="M16.6321 6.66807C16.5854 6.64161 16.5737 6.59751 16.5708 6.54753L16.5825 6.53577C16.6292 6.55929 16.6438 6.60339 16.6438 6.65337L16.6321 6.66513V6.66807Z" fill="#C3517E"/>
<path d="M18.7135 7.61768C18.6639 7.59416 18.6493 7.55006 18.6522 7.50008L18.658 7.4942C18.7106 7.51772 18.7252 7.56182 18.7193 7.6118L18.7135 7.61474V7.61768Z" fill="#C3517E"/>
<path d="M11.2061 29.6152C11.174 29.6182 11.1419 29.624 11.1098 29.627C11.104 29.6064 11.0981 29.5858 11.0894 29.5682C11.1419 29.5505 11.174 29.5858 11.2061 29.6182V29.6152Z" fill="#D281A0"/>
<path d="M17.8232 29.6152C17.8437 29.6005 17.8641 29.5858 17.8845 29.5682C17.8904 29.5799 17.8962 29.5888 17.905 29.6005C17.8787 29.6064 17.8554 29.6123 17.8291 29.6182L17.8232 29.6152Z" fill="#C3517E"/>
<path d="M17.3506 5.04808C17.3768 5.05102 17.4031 5.05396 17.4265 5.0569C17.4206 5.06866 17.4177 5.07748 17.4119 5.08924C17.3914 5.07454 17.371 5.05984 17.3506 5.04514H17.3477L17.3506 5.04808Z" fill="#C3517E"/>
<path d="M17.8263 29.6182C17.803 29.6329 17.7826 29.6505 17.7592 29.6623C17.7592 29.6623 17.7475 29.6476 17.7417 29.6388C17.768 29.6299 17.7942 29.6211 17.8234 29.6123L17.8263 29.6182Z" fill="#C3517E"/>
<path d="M11.6469 29.8122L11.6673 29.821C11.6673 29.821 11.6469 29.8357 11.6381 29.8416L11.6265 29.824C11.6265 29.824 11.6411 29.8152 11.6469 29.8122Z" fill="#C3517E"/>
<path d="M11.4131 5.13335C11.4394 5.11571 11.4685 5.10983 11.4744 5.14511C11.4831 5.18627 11.451 5.20979 11.4131 5.22449C11.4131 5.19509 11.4131 5.16275 11.4131 5.13335Z" fill="#C3517E"/>
<path d="M11.895 4.87168C11.86 4.8952 11.822 4.91873 11.787 4.94225C11.7783 4.93343 11.7695 4.92461 11.7607 4.91579C11.7899 4.87168 11.8337 4.85992 11.8863 4.85992L11.895 4.86874V4.87168Z" fill="#C3517E"/>
<path d="M13.0742 5.58318C13.0801 5.55966 13.0859 5.53319 13.0917 5.50967C13.1034 5.51555 13.1122 5.52143 13.1238 5.53025L13.0801 5.58906L13.0771 5.58612L13.0742 5.58318Z" fill="#C3517E"/>
<path d="M13.0798 5.5861C13.0623 5.60962 13.0448 5.6302 13.0273 5.65372L13.0127 5.63902C13.0331 5.62138 13.0565 5.6008 13.0769 5.58316L13.0798 5.5861Z" fill="#C3517E"/>
<path d="M17.47 6.18295C17.4496 6.16237 17.4321 6.14473 17.4116 6.12415C17.4321 6.14767 17.4496 6.16531 17.47 6.18589V6.18295Z" fill="#C3517E"/>
<path d="M13.0244 5.65374C13.0244 5.65374 13.0039 5.67726 12.9952 5.68902C12.9601 5.65962 12.9923 5.6508 13.0098 5.63904L13.0244 5.65374Z" fill="#C3517E"/>
<path d="M12.8872 5.81251C12.8872 5.81251 12.9193 5.77723 12.9222 5.78017C12.9573 5.80369 12.931 5.82133 12.9106 5.83603C12.9018 5.82721 12.893 5.82133 12.8872 5.81251Z" fill="#C3517E"/>
<path d="M17.4673 6.18295C17.4877 6.20353 17.5082 6.22411 17.5257 6.24175C17.5052 6.22117 17.4848 6.20059 17.4673 6.18295Z" fill="#C3517E"/>
<path d="M11.4131 5.13333C11.4131 5.16273 11.4131 5.19507 11.4131 5.22447C11.308 5.19507 11.381 5.16567 11.4131 5.13333Z" fill="#D281A0"/>
<path d="M11.5884 6.11826C11.6001 6.10062 11.6059 6.06534 11.6351 6.10356C11.6351 6.10356 11.6146 6.12414 11.603 6.13296L11.5884 6.11826Z" fill="#C3517E"/>
<path d="M17.2891 4.98929C17.3095 5.00987 17.3299 5.03045 17.3474 5.04809H17.3504C17.3299 5.02751 17.3095 5.00693 17.292 4.98929H17.2891Z" fill="#C3517E"/>
<path d="M17.5896 6.30056C17.5692 6.27998 17.5488 6.2594 17.5283 6.24176C17.5488 6.26234 17.5692 6.28292 17.5867 6.3035L17.5896 6.30056Z" fill="#C3517E"/>
<path d="M17.2919 4.98635C17.2919 4.98635 17.2773 4.98341 17.2715 4.97753C17.2685 4.97753 17.2685 4.96871 17.2656 4.96283C17.2744 4.97165 17.2802 4.98047 17.289 4.98929L17.2919 4.98635Z" fill="#C3517E"/>
<path d="M11.7138 29.0155C11.7138 29.0155 11.7313 29.039 11.7401 29.0508C11.7284 29.0419 11.7168 29.0331 11.7051 29.0243L11.7109 29.0184L11.7138 29.0155Z" fill="#C3517E"/>
<path d="M18.6521 7.50011C18.6317 7.47953 18.6113 7.46188 18.5938 7.4413L18.5996 7.43542C18.62 7.45601 18.6375 7.47659 18.658 7.49423L18.6521 7.50011Z" fill="#C3517E"/>
<path d="M17.4672 28.8979C17.4672 28.8979 17.4497 28.9155 17.4438 28.9214C17.4438 28.9155 17.4438 28.9096 17.4497 28.9067C17.4555 28.9037 17.4643 28.9008 17.4701 28.8979H17.4672Z" fill="#C3517E"/>
<path d="M18.4744 7.32075C18.454 7.30017 18.4364 7.27959 18.416 7.25901L18.4189 7.25607C18.4394 7.27665 18.4598 7.29429 18.4802 7.31487L18.4744 7.32075Z" fill="#C3517E"/>
<path d="M18.3633 7.19727C18.3837 7.21785 18.4012 7.23843 18.4216 7.25901L18.4187 7.26195C18.3983 7.24137 18.3779 7.22079 18.3604 7.20315L18.3662 7.19727H18.3633Z" fill="#C3517E"/>
<path d="M18.2988 7.13846C18.3193 7.1561 18.3397 7.17668 18.3601 7.19432L18.3572 7.2002C18.3368 7.17962 18.3193 7.15904 18.2988 7.13846Z" fill="#C3517E"/>
<path d="M17.4702 28.9008C17.4702 28.9008 17.4848 28.8831 17.4936 28.8743C17.4936 28.8802 17.4936 28.8861 17.4877 28.889C17.4819 28.8949 17.4731 28.8949 17.4673 28.8978L17.4702 28.9008Z" fill="#C3517E"/>
<path d="M11.343 28.792C11.3197 28.7744 11.2992 28.7567 11.2759 28.7391C11.2876 28.7273 11.2992 28.7156 11.3109 28.7038C11.3313 28.7244 11.3518 28.742 11.3722 28.7626C11.3634 28.7714 11.3518 28.7802 11.343 28.792Z" fill="#C3517E"/>
<path d="M18.1821 6.95914C18.2026 6.97972 18.2201 7.0003 18.2405 7.02088C18.2201 7.0003 18.1996 6.98266 18.1792 6.96208L18.1821 6.95914Z" fill="#C3517E"/>
<path d="M11.2791 28.7391C11.2586 28.7185 11.2382 28.7009 11.2178 28.6803C11.2294 28.6685 11.2411 28.6597 11.2499 28.6479C11.2703 28.6656 11.2907 28.6862 11.3112 28.7038C11.2995 28.7156 11.2878 28.7273 11.2762 28.7391H11.2791Z" fill="#C3517E"/>
<path d="M18.1796 6.96208C18.1796 6.96208 18.1591 6.94444 18.1504 6.93268C18.1562 6.93268 18.165 6.93268 18.1708 6.93562C18.1767 6.9415 18.1796 6.95032 18.1825 6.95914L18.1796 6.96208Z" fill="#C3517E"/>
<path d="M17.8848 6.66217C17.8848 6.66217 17.9052 6.67981 17.914 6.68863C17.9081 6.68863 17.8994 6.68863 17.8964 6.68569C17.8906 6.67981 17.8906 6.67099 17.8848 6.66217Z" fill="#C3517E"/>
<path d="M16.6469 6.65335L16.6703 6.69451C16.6703 6.69451 16.6469 6.67687 16.6323 6.66805L16.644 6.65629L16.6469 6.65335Z" fill="#C3517E"/>
<path d="M11.7868 4.94225C11.7663 4.95989 11.743 4.97753 11.7225 4.99811C11.7138 4.98929 11.705 4.98047 11.6934 4.97165C11.7167 4.95401 11.7371 4.93637 11.7605 4.91873C11.7693 4.92755 11.778 4.93637 11.7868 4.94519V4.94225Z" fill="#C3517E"/>
<path d="M17.8846 6.65923C17.8641 6.63865 17.8466 6.61807 17.8262 6.60043C17.8466 6.62101 17.867 6.63865 17.8846 6.65923Z" fill="#C3517E"/>
<path d="M17.7646 6.54459C17.7851 6.56517 17.8055 6.58575 17.823 6.60339C17.8026 6.58281 17.7822 6.56223 17.7646 6.54459Z" fill="#C3517E"/>
<path d="M17.4115 6.1212C17.4115 6.1212 17.394 6.11238 17.3853 6.10944C17.394 6.11532 17.3998 6.11826 17.4086 6.12414L17.4115 6.1212Z" fill="#C3517E"/>
<path d="M16.4892 6.38287L16.4951 6.39757H16.4805L16.4892 6.38287Z" fill="#C3517E"/>
<path d="M10.7595 28.304C10.7799 28.3245 10.8004 28.3451 10.8208 28.3657C10.7829 28.3657 10.7566 28.3481 10.7595 28.304Z" fill="#D281A0"/>
<path d="M17.7679 6.54163C17.7474 6.52105 17.727 6.50047 17.7095 6.47989V6.48283C17.7299 6.50341 17.7503 6.52399 17.7679 6.54163Z" fill="#C3517E"/>
<path d="M16.5712 6.54753C16.5712 6.54753 16.5537 6.52107 16.5479 6.50931C16.5595 6.51813 16.5712 6.52695 16.5829 6.53577L16.5712 6.54753Z" fill="#C3517E"/>
<path d="M11.8862 4.86286C11.8862 4.86286 11.9096 4.84522 11.9213 4.8364C11.9125 4.84816 11.9037 4.85992 11.895 4.87168L11.8862 4.86286Z" fill="#C3517E"/>
<path d="M9.24721 8.69082C8.3686 9.95211 7.46372 11.1987 6.78652 12.5864C6.61722 12.9363 6.43916 13.2773 6.19396 13.5801C6.17353 13.6037 6.1531 13.6301 6.12975 13.6536V13.6448C5.89331 13.8242 5.65395 14.0006 5.35622 14.0594C4.74615 14.177 4.04268 13.8271 4.24701 12.8775C4.70529 11.8867 5.34162 11.0194 6.07721 10.2226C6.11223 10.202 6.14434 10.1785 6.1385 10.1285V10.1315C6.18229 10.1315 6.20272 10.1138 6.1998 10.0697V10.0785C6.44208 9.88155 6.68435 9.68162 6.92955 9.48464C7.46372 9.06127 8.03584 8.69376 8.64006 8.38212C8.70136 8.34978 8.76266 8.32038 8.82688 8.29686C8.98158 8.24099 9.15964 8.12339 9.29683 8.25275C9.43694 8.38212 9.28224 8.54382 9.24721 8.69082Z" fill="white"/>
<path d="M15.1552 28.4804C15.2195 27.9276 15.3975 27.4014 15.5084 26.8575C15.6865 25.9843 15.8821 25.1169 15.9871 24.229C16.0718 23.5117 16.1856 22.7972 16.2645 22.0799C16.3258 21.5183 16.3695 20.9538 16.3929 20.3893C16.4454 19.1457 16.5038 17.902 16.4454 16.6613C16.3929 15.5323 16.3345 14.4063 16.2323 13.2803C16.0835 11.6132 15.8616 9.95799 15.5814 8.30862C15.4559 7.57066 15.3099 6.83565 15.1611 6.01831C15.3683 6.28586 15.3683 6.54458 15.4238 6.76803C15.8237 8.35272 16.1681 9.94917 16.4338 11.5633C16.6001 12.5776 16.7111 13.6037 16.8249 14.6268C17.0146 16.3409 17.0175 18.0608 16.9796 19.7778C16.9533 20.9656 16.8103 22.1475 16.6118 23.3206C16.3841 24.6818 16.0455 26.0166 15.6106 27.3249C15.4792 27.716 15.3537 28.1158 15.1465 28.4804H15.1552Z" fill="#D281A0"/>
<path d="M13.8358 28.3716C13.6811 28.204 13.6286 27.9923 13.5556 27.7953C12.9309 26.0872 12.5135 24.3231 12.2537 22.5238C11.9677 20.551 11.9472 18.5635 12.0231 16.5761C12.0844 14.9855 12.2829 13.4037 12.531 11.8279C12.8229 9.98738 13.2316 8.17336 13.6782 6.36523C13.6957 6.30055 13.7249 6.23586 13.7745 6.17706C12.3296 13.5801 11.9151 20.9773 13.8358 28.3716Z" fill="#D281A0"/>
<path d="M12.1869 7.01499C11.9797 7.39132 11.7695 7.76764 11.5622 8.14691C10.6252 9.84627 9.87507 11.6279 9.36717 13.5037C9.0636 14.6209 8.86219 15.7587 8.78629 16.923C8.73959 17.6492 8.71624 18.3754 8.7571 19.0986C8.82716 20.2982 9.05192 21.4742 9.40512 22.6238C9.97432 24.4936 10.8792 26.193 12.0293 27.7659C12.0847 27.8394 12.1635 27.91 12.1665 28.0305C12.0643 28.0629 12.0234 27.9864 11.9797 27.9306C11.031 26.7428 10.1962 25.4786 9.56566 24.0879C8.95851 22.7531 8.5557 21.3595 8.3864 19.8983C8.31634 19.2868 8.26088 18.6753 8.27256 18.0579C8.29883 16.5937 8.52651 15.159 8.92349 13.7507C9.51896 11.6426 10.4443 9.68162 11.5798 7.82056C11.6673 7.6765 11.7315 7.52068 11.8395 7.38837C11.9417 7.26195 12.0176 7.11201 12.1052 6.97089C12.1344 6.98559 12.1606 7.00029 12.1898 7.01499H12.1869Z" fill="#D281A0"/>
<path d="M9.92725 8.03225C9.95935 7.88231 10.0207 7.75588 10.2016 7.67944C10.1841 7.87349 10.044 7.94405 9.936 8.03813L9.92725 8.02931V8.03225Z" fill="#D281A0"/>
<path d="M10.5257 7.32075C10.5169 7.42953 10.4615 7.49421 10.3476 7.50009H10.3418C10.3535 7.38543 10.4089 7.32369 10.5199 7.31781H10.5228L10.5257 7.32075Z" fill="#D281A0"/>
<path d="M12.4813 28.4833C12.4025 28.4363 12.3325 28.3833 12.3208 28.254C12.4522 28.301 12.4755 28.3892 12.4843 28.4833H12.4813Z" fill="#D281A0"/>
<path d="M13.8007 5.83602C13.8328 5.83602 13.8678 5.83308 13.8999 5.83014C13.8766 5.88894 13.8503 5.94774 13.824 6.01242C13.7657 5.95362 13.8007 5.89188 13.8036 5.83602H13.8007Z" fill="#D281A0"/>
<path d="M12.2862 6.84447C12.2862 6.84447 12.2599 6.87681 12.2482 6.87681C12.2132 6.87681 12.2015 6.85035 12.2161 6.82389C12.2219 6.81213 12.2482 6.80037 12.2599 6.80625C12.2716 6.80625 12.2774 6.83271 12.2832 6.84741L12.2862 6.84447Z" fill="#D281A0"/>
<path d="M12.5837 6.37111C12.5837 6.37111 12.5575 6.39169 12.5429 6.40051C12.5341 6.38287 12.5254 6.36229 12.5166 6.34465C12.5312 6.33877 12.5516 6.32407 12.5633 6.32995C12.575 6.33289 12.5779 6.35935 12.5837 6.37405V6.37111Z" fill="#D281A0"/>
<path d="M10.8206 6.95914C10.8119 6.9856 10.806 7.01206 10.7973 7.03852C10.7885 7.03264 10.7827 7.0297 10.7739 7.02382C10.7885 7.00324 10.806 6.97972 10.8206 6.95914Z" fill="#D281A0"/>
<path d="M15.1556 28.4804C15.1497 28.5068 15.141 28.5333 15.1351 28.5598C15.0826 28.5157 15.1293 28.501 15.1585 28.4804H15.1556Z" fill="#D281A0"/>
<path d="M10.6661 7.1179C10.6661 7.1179 10.6895 7.12966 10.6895 7.1326C10.6836 7.15024 10.6807 7.17082 10.669 7.18258C10.6457 7.20904 10.634 7.20316 10.6457 7.16788C10.6515 7.15024 10.6603 7.1326 10.669 7.11496L10.6661 7.1179Z" fill="#D281A0"/>
<path d="M13.8944 28.5392C13.8944 28.5392 13.8886 28.5539 13.8857 28.5597C13.8798 28.5509 13.8711 28.5392 13.8652 28.5303C13.8711 28.5274 13.8798 28.5186 13.8827 28.5215C13.8886 28.5215 13.8915 28.5333 13.8944 28.5392Z" fill="#D281A0"/>
<path d="M10.3509 7.5001C10.3421 7.52656 10.3334 7.55302 10.3246 7.57948C10.3159 7.5736 10.3013 7.56478 10.3013 7.56478C10.3159 7.54126 10.3305 7.52068 10.3451 7.49716L10.3509 7.5001Z" fill="#D281A0"/>
<path d="M7.84912 8.21452C7.87539 8.16454 7.91042 8.12926 7.97172 8.15278C7.94837 8.20864 7.90166 8.21746 7.84912 8.21452Z" fill="#AB0247"/>
<path d="M18.3397 25.6226C18.3397 25.6226 18.3252 25.6285 18.3222 25.6256C18.3164 25.6197 18.3164 25.6109 18.3135 25.605C18.3222 25.605 18.3339 25.5991 18.3427 25.5991C18.3427 25.6079 18.3427 25.6138 18.3397 25.6226Z" fill="#AB0247"/>
<path d="M12.429 6.54458C12.429 6.59456 12.4173 6.63866 12.3677 6.66512L12.3618 6.65924C12.3618 6.60926 12.3735 6.56516 12.4231 6.5387L12.429 6.54458Z" fill="#D281A0"/>
<path d="M7.7876 8.27626C7.81095 8.25568 7.83138 8.2351 7.85473 8.21158C7.83138 8.23216 7.81095 8.25274 7.7876 8.27626Z" fill="#AB0247"/>
<path d="M7.96875 8.15574C7.96291 8.1087 7.98334 8.08812 8.03005 8.094C8.00961 8.11458 7.98918 8.13516 7.96875 8.15574Z" fill="#AB0247"/>
<path d="M10.5229 7.3178C10.5434 7.29722 10.5638 7.27664 10.5813 7.259L10.5842 7.26194C10.5638 7.28252 10.5434 7.3031 10.5259 7.32074L10.5229 7.3178Z" fill="#D281A0"/>
<path d="M10.5811 7.25607C10.6015 7.23549 10.6219 7.21785 10.6424 7.19727C10.6219 7.21785 10.6044 7.23843 10.584 7.25901L10.5811 7.25607Z" fill="#D281A0"/>
<path d="M10.8208 6.95914C10.8208 6.95914 10.8383 6.9415 10.8471 6.93268C10.8471 6.93856 10.8471 6.94738 10.8412 6.95032C10.8354 6.9562 10.8266 6.9562 10.8208 6.95914Z" fill="#D281A0"/>
<path d="M12.5459 28.5392C12.5459 28.5392 12.5634 28.5568 12.5722 28.5686C12.5634 28.5598 12.5517 28.5509 12.543 28.5451H12.5459V28.5392Z" fill="#D281A0"/>
<path d="M12.5398 28.5421C12.5194 28.5215 12.5019 28.5009 12.4814 28.4833C12.5019 28.5039 12.5223 28.5215 12.5398 28.5421Z" fill="#D281A0"/>
<path d="M12.3676 6.66512C12.3676 6.66512 12.3471 6.68276 12.3384 6.68864C12.3471 6.67982 12.3559 6.66806 12.3617 6.65924L12.3676 6.66512Z" fill="#D281A0"/>
<path d="M12.4204 6.53869C12.4204 6.53869 12.4408 6.52105 12.4496 6.51517C12.4408 6.52399 12.435 6.53575 12.4262 6.54457L12.4204 6.53869Z" fill="#D281A0"/>
<path d="M6.19704 10.0697C6.19996 10.1138 6.17953 10.1344 6.13574 10.1314C6.15618 10.1109 6.17661 10.0903 6.19704 10.0697Z" fill="#C3517E"/>
<path d="M6.13552 10.1285C6.13844 10.1756 6.10925 10.1991 6.07422 10.2226C6.09465 10.1903 6.11508 10.1609 6.13552 10.1285Z" fill="#C3517E"/>
<path d="M6.12695 13.6566C6.14739 13.633 6.16782 13.6066 6.19117 13.5831C6.17074 13.6066 6.1503 13.633 6.12695 13.6566Z" fill="#C3517E"/>
</g>
<defs>
<clipPath id="clip0_512_3897">
<rect width="29" height="31" fill="white"/>
</clipPath>
</defs>
</svg>
