<svg width="29" height="35" viewBox="0 0 29 35" fill="none" xmlns="http://www.w3.org/2000/svg">
<g clip-path="url(#clip0_512_3038)">
<path d="M16.7596 0C16.9322 0.311346 17.2694 0.136992 17.5235 0.245964C19.1814 0.958947 19.7963 2.93755 18.7407 4.38687C18.267 5.03603 17.7839 5.6665 17.4921 6.42775C17.3572 6.78112 17.3729 6.92279 17.7541 7.11271C18.4599 7.46609 19.1422 7.35244 19.8606 7.24503C21.5451 6.99128 23.2015 7.17965 24.7668 7.8288C27.198 8.83757 28.4073 10.785 28.8371 13.2929C29.2527 15.7199 28.7853 18.0861 28.3618 20.4555C27.7705 23.7557 27.1823 27.0576 26.0122 30.2208C25.8162 30.7517 25.5872 31.2747 25.3346 31.7807C24.5708 33.3094 23.5261 34.5439 21.7741 35H20.2072C19.4088 34.5875 18.5948 34.1921 18.0238 33.4619C17.8482 33.2378 17.74 33.3405 17.6066 33.5024C16.9369 34.3166 16.0475 34.7634 15.0359 35H13.9395C12.8321 34.7385 11.902 34.1843 11.1726 33.2502C10.4543 34.1921 9.52571 34.7089 8.45443 35H7.2012C5.09156 34.4053 4.05949 32.7817 3.28152 30.9307C2.08475 28.0803 1.50597 25.0649 0.935039 22.0511C0.569578 20.1239 0.188433 18.1966 0.0425623 16.2352C-0.0891917 14.4574 0.0880489 12.7185 0.837792 11.0824C2.31061 7.87395 5.69387 6.88542 9.06301 7.21856C9.54767 7.26682 10.0512 7.44273 10.5076 7.35711C11.2166 7.22479 11.8016 6.93213 11.891 6.0012C12.0008 4.86946 12.5168 3.83112 13.0831 2.83792C13.7779 1.62211 14.5669 0.498154 15.9754 0L16.7596 0ZM16.7518 1.12707C16.1683 1.00565 15.6554 1.16755 15.2602 1.58631C14.0289 2.89552 13.2885 4.46471 12.8494 6.18801C12.7333 6.64257 12.945 6.71263 13.3309 6.66748C13.8454 6.60833 14.363 6.57563 14.879 6.53205C15.1864 6.57875 15.4923 6.63479 15.7997 6.66904C16.093 6.70173 16.3361 6.69239 16.4538 6.31255C16.7298 5.42054 17.2161 4.63906 17.8137 3.91207C18.6732 2.8675 18.0364 1.25784 16.7518 1.12552V1.12707ZM19.5798 33.4402C20.7766 34.2123 22.0361 34.1189 23.0697 33.1693C24.0563 32.2633 24.5896 31.0833 25.0445 29.8675C26.0326 27.2195 26.5894 24.4625 27.0914 21.6946C27.5509 19.1556 28.0983 16.6321 27.8991 14.0137C27.6325 10.5313 25.148 8.20553 21.622 8.24445C21.1185 8.18062 20.6197 8.18374 20.0347 8.2787C22.3137 10.5795 22.7309 13.3116 22.4674 16.2523C22.2525 18.6481 21.76 21.0003 21.291 23.3525C20.7154 26.2387 20.1147 29.1296 18.7485 31.7791C18.4944 32.271 18.532 32.5762 18.9195 32.9062C19.1343 33.0899 19.299 33.3359 19.5798 33.4386V33.4402ZM9.39867 33.4479C10.5468 32.749 10.5954 32.5481 10.059 31.3884C9.74531 30.7096 9.46611 30.0107 9.23084 29.3024C8.09054 25.8884 7.49921 22.35 6.88436 18.8178C6.5738 17.0338 6.35264 15.2466 6.55498 13.4284C6.77613 11.4513 7.45686 9.69377 9.06144 8.24757H7.35177C4.29633 8.22266 2.11141 9.85878 1.3256 12.7559C1.0715 13.6915 1.00562 14.652 1.08405 15.6047C1.48245 20.5115 2.4157 25.3156 4.01871 29.9811C4.42495 31.1627 4.97863 32.2773 5.91032 33.1553C6.92357 34.108 8.23327 34.2123 9.3971 33.4479H9.39867ZM21.451 14.9944C21.451 14.6053 21.4793 14.2145 21.4463 13.8284C21.2361 11.3859 20.3186 9.36685 17.958 8.25535C16.4946 7.56727 14.9245 7.52368 13.3576 7.65445C10.2064 7.91909 8.11406 9.97865 7.65293 13.0859C7.3502 15.1252 7.64195 17.1116 7.99329 19.1027C8.60187 22.5648 9.18378 26.0348 10.3539 29.3693C10.8354 30.7408 11.3844 32.092 12.4714 33.1288C13.632 34.2356 15.3182 34.2403 16.4993 33.1599C16.8851 32.8066 17.2067 32.4018 17.4717 31.9488C18.6811 29.8861 19.2943 27.6149 19.7963 25.3125C20.5397 21.9032 21.3036 18.494 21.4526 14.9913L21.451 14.9944Z" fill="#060302"/>
<path d="M21.4507 14.9944C21.3017 18.4971 20.5363 21.9063 19.7944 25.3156C19.2925 27.6164 18.6792 29.8892 17.4699 31.9519C17.2048 32.4049 16.8848 32.8097 16.4974 33.163C15.3163 34.2419 13.6302 34.2388 12.4695 33.1319C11.3825 32.0951 10.8335 30.7439 10.352 29.3724C9.18192 26.0394 8.6 22.5679 7.99142 19.1058C7.64165 17.1147 7.34834 15.1283 7.65106 13.089C8.1122 9.98176 10.2046 7.9222 13.3557 7.65756C14.9226 7.52679 16.4943 7.56883 17.9561 8.25846C20.3167 9.36996 21.2343 11.389 21.4445 13.8316C21.4774 14.2176 21.4492 14.6084 21.4492 14.9975L21.4507 14.9944Z" fill="#FF9800"/>
<path d="M9.39846 33.4479C8.23463 34.2123 6.92336 34.108 5.91168 33.1553C4.97842 32.2773 4.42474 31.1627 4.02007 29.9811C2.41706 25.3171 1.48381 20.5115 1.08541 15.6047C1.00855 14.652 1.07443 13.6915 1.32696 12.7559C2.11121 9.85878 4.29769 8.22266 7.35313 8.24756C6.78377 8.73638 6.1846 9.2034 5.77522 9.84166C4.61296 11.6537 4.37455 13.6416 4.50944 15.7557C4.70237 18.7508 5.35173 21.6635 5.96501 24.5808C6.62378 27.7114 7.34058 30.842 9.40003 33.4479H9.39846Z" fill="#FF9800"/>
<path d="M21.6203 8.246C25.1479 8.20553 27.6324 10.5328 27.8975 14.0153C28.0967 16.6337 27.5508 19.1571 27.0897 21.6962C26.5878 24.464 26.0309 27.221 25.0428 29.869C24.5895 31.0848 24.0546 32.2648 23.068 33.1708C22.0328 34.1204 20.7749 34.2138 19.5781 33.4417C21.3694 31.3043 22.072 28.7015 22.6963 26.0862C23.479 22.8077 24.144 19.5027 24.4766 16.1402C24.7824 13.0516 24.2648 10.2729 21.6187 8.246H21.6203Z" fill="#FF9800"/>
<path d="M9.39833 33.4479C7.33889 30.842 6.62209 27.7114 5.96332 24.5808C5.35003 21.6635 4.70068 18.7508 4.50775 15.7557C4.37129 13.6416 4.61127 11.6537 5.77353 9.84165C6.18291 9.20339 6.78207 8.73793 7.35144 8.24756C7.86905 8.24756 8.38508 8.24756 9.06111 8.24756C7.45653 9.69376 6.7758 11.4513 6.55464 13.4284C6.35231 15.2466 6.57346 17.0338 6.88403 18.8178C7.49888 22.35 8.0902 25.8869 9.2305 29.3024C9.46735 30.0107 9.74654 30.7096 10.0587 31.3884C10.5951 32.5481 10.5465 32.749 9.39833 33.4479Z" fill="#FFB240"/>
<path d="M21.6203 8.246C24.2664 10.2729 24.784 13.0516 24.4781 16.1402C24.1456 19.5027 23.4806 22.8077 22.6979 26.0861C22.0736 28.7015 21.3709 31.3043 19.5797 33.4417C19.2989 33.339 19.1342 33.093 18.9194 32.9093C18.5319 32.5793 18.4943 32.2742 18.7484 31.7822C20.113 29.1327 20.7153 26.2418 21.2909 23.3556C21.7599 21.0034 22.2509 18.6528 22.4673 16.2554C22.7324 13.3147 22.3152 10.5827 20.0346 8.28181C20.6196 8.18529 21.1184 8.18217 21.6219 8.24756L21.6203 8.246Z" fill="#FFB240"/>
<path d="M14.8788 6.53361C14.3627 6.5772 13.8451 6.60989 13.3306 6.66905C12.9448 6.71264 12.733 6.64414 12.8491 6.18957C13.2899 4.46627 14.0286 2.89709 15.2599 1.58787C15.6552 1.16756 16.1681 1.00721 16.7515 1.12864C16.8645 2.044 16.6151 2.81302 16.0159 3.55091C15.3242 4.40089 15.0042 5.44546 14.8788 6.53517V6.53361Z" fill="#7DC118"/>
<path d="M14.8789 6.53361C15.0044 5.44234 15.3244 4.39933 16.0161 3.54935C16.6152 2.81302 16.8662 2.04243 16.7517 1.12708C18.0363 1.2594 18.6731 2.8675 17.8136 3.91363C17.216 4.63906 16.7297 5.42054 16.4537 6.31411C16.336 6.69395 16.0929 6.70329 15.7996 6.6706C15.4906 6.63635 15.1848 6.58031 14.8789 6.53361Z" fill="#70A215"/>
</g>
<defs>
<clipPath id="clip0_512_3038">
<rect width="29" height="35" fill="white"/>
</clipPath>
</defs>
</svg>
