<svg width="38" height="25" viewBox="0 0 38 25" fill="none" xmlns="http://www.w3.org/2000/svg">
<g clip-path="url(#clip0_512_3026)">
<path d="M16.244 24.9999H16.0979C15.7169 24.814 15.2914 24.8588 14.8914 24.7947C11.7607 24.2691 9.20154 22.7563 7.1885 20.2883C6.20421 19.0768 5.49298 17.705 5.01036 16.205C3.88001 16.955 2.64171 17.1986 1.33356 17.1601C0.755682 17.1409 0.374666 16.8268 0.146056 16.3076C0.101604 16.2114 0.114305 16.0832 0 16.0255V15.9486C0.107955 15.8909 0.0571524 15.7947 0.0571524 15.7178C0.0571524 13.5512 0.0571524 11.3909 0.0571524 9.22423C0.0571524 9.14731 0.107955 9.04474 0 8.99346V8.91654C0.0571524 8.90372 0.0635027 8.85885 0.0825535 8.81397C0.387366 8.03833 0.781083 7.78192 1.59392 7.78192C2.81952 7.78192 3.97527 8.04474 5.01036 8.74346C5.75969 6.42936 7.0234 4.47423 8.87132 2.92936C11.0431 1.10244 13.5388 0.0575637 16.3646 0.0255124C21.3305 -0.0257697 26.3028 0.0126919 31.2687 0.00628163C31.6815 0.00628163 32.0752 0.0767945 32.4626 0.21141C33.9168 0.705 34.9138 1.74987 35.6949 3.02551C37.2316 5.52551 37.8158 8.31397 37.9619 11.205C38.0572 13.0704 37.9873 14.9358 37.6063 16.7755C37.1935 18.7819 36.5775 20.705 35.3837 22.3845C34.1962 24.064 32.6721 24.9935 30.5194 24.955C25.8646 24.8781 21.2035 24.9294 16.5424 24.9294C16.4408 24.9294 16.3202 24.8588 16.244 24.9935V24.9999ZM8.97293 6.74987C9.43015 6.74987 9.87467 6.63449 10.3319 6.67295C10.9923 6.72423 11.5511 7.30115 11.5702 7.97423C11.5892 8.66654 11.0812 9.28833 10.4335 9.37167C10.2239 9.39731 10.0207 9.41654 9.81116 9.44218C8.08389 9.62808 6.83289 11.4229 7.2393 13.1217C7.58857 14.596 8.67447 15.4614 10.2874 15.5704C11.0495 15.6217 11.5956 16.2178 11.5702 16.9742C11.5511 17.6986 10.9669 18.2499 10.2239 18.2819C9.79846 18.3012 9.39205 18.1794 8.97293 18.1986C8.96658 18.1858 8.95388 18.1729 8.94753 18.1601C8.94753 18.1665 8.94753 18.1794 8.94753 18.1858C8.95388 18.1922 8.96658 18.1922 8.97928 18.1986C9.01738 18.2755 9.04913 18.3588 9.10628 18.4229C11.0876 20.8717 13.6531 22.1665 16.7838 22.2178C20.0224 22.2691 23.261 22.2306 26.4997 22.2242C26.5759 22.2242 26.6711 22.2755 26.7283 22.1665C24.8803 19.1986 24.2834 15.8973 24.2834 12.4742C24.2834 9.03833 24.8803 5.73064 26.76 2.72423C26.6394 2.72423 26.5695 2.72423 26.4933 2.72423C23.242 2.72423 19.9906 2.72423 16.7393 2.72423C16.371 2.72423 15.9963 2.74987 15.6344 2.80115C13.8499 3.04474 12.2306 3.705 10.8082 4.82679C10.1096 5.37808 9.4492 5.97423 8.97293 6.75628C8.96023 6.75628 8.94753 6.76269 8.94118 6.7691C8.94118 6.7691 8.94118 6.78192 8.94118 6.79474C8.94753 6.78192 8.96023 6.7691 8.96658 6.75628L8.97293 6.74987ZM35.3202 12.4935C35.3329 12.0319 35.2757 11.5704 35.2567 11.1153C35.1805 9.58321 34.9011 8.08961 34.4121 6.6409C33.993 5.41013 33.4532 4.24346 32.488 3.3332C31.6497 2.54474 30.7353 2.52551 29.8844 3.28192C28.9255 4.12808 28.3857 5.24346 27.9666 6.41654C27.0902 8.89731 26.8616 11.4614 27.0585 14.0832C27.1664 15.5383 27.4205 16.9614 27.8967 18.3332C28.3222 19.5704 28.8556 20.7563 29.8653 21.6537C30.7543 22.4486 31.6561 22.4165 32.5261 21.596C33.142 21.0127 33.5675 20.3076 33.9231 19.5512C34.9582 17.314 35.2821 14.9294 35.3329 12.4935H35.3202ZM2.76237 14.2435C3.77206 14.0896 4.45789 13.346 4.44519 12.4294C4.43249 11.564 3.70221 10.814 2.76237 10.705V14.2435Z" fill="white"/>
<path d="M8.97281 18.1987C9.39193 18.1795 9.79834 18.3013 10.2238 18.2821C10.9668 18.25 11.551 17.6987 11.5701 16.9744C11.5955 16.218 11.0493 15.6218 10.2873 15.5705C8.668 15.4615 7.58845 14.5962 7.23919 13.1218C6.83277 11.4231 8.08377 9.62821 9.81104 9.44231C10.0206 9.41667 10.2302 9.39744 10.4334 9.3718C11.0811 9.29488 11.5891 8.66667 11.5701 7.97437C11.551 7.29488 10.9922 6.72437 10.3318 6.67308C9.87455 6.63462 9.42368 6.75642 8.97281 6.75001C9.44273 5.97437 10.1032 5.37821 10.808 4.82693C12.2305 3.70513 13.8498 3.05129 15.6342 2.80129C16.0026 2.75001 16.3709 2.72437 16.7392 2.72437C19.9905 2.72437 23.2419 2.72437 26.4932 2.72437C26.5631 2.72437 26.6329 2.72437 26.7599 2.72437C24.8802 5.73078 24.2833 9.04488 24.2833 12.4744C24.2833 15.8974 24.8802 19.2051 26.7282 22.1667C26.671 22.2757 26.5694 22.2244 26.4995 22.2244C23.2609 22.2244 20.0223 22.2692 16.7836 22.218C13.653 22.1667 11.0938 20.8718 9.10617 18.4231C9.05536 18.359 9.02361 18.2756 8.97916 18.1987H8.97281Z" fill="#F57C00"/>
<path d="M35.3202 12.4872C35.2694 14.9231 34.9518 17.3077 33.9104 19.5449C33.5611 20.3013 33.1293 21.0064 32.5133 21.5898C31.6434 22.4103 30.7416 22.4423 29.8526 21.6474C28.8492 20.7564 28.3158 19.5705 27.884 18.3269C27.4077 16.9487 27.1537 15.5321 27.0458 14.0769C26.8489 11.4551 27.0775 8.89745 27.9539 6.41027C28.373 5.23078 28.9064 4.1154 29.8716 3.27565C30.7289 2.52565 31.6434 2.54488 32.4752 3.32694C33.4405 4.23719 33.9803 5.40386 34.3994 6.63463C34.8947 8.08335 35.1678 9.57693 35.244 11.109C35.2694 11.5705 35.3202 12.0257 35.3075 12.4872H35.3202ZM31.3703 12.468C31.3703 11.7244 30.7607 11.1026 30.0367 11.109C29.3065 11.109 28.7095 11.7244 28.7159 12.4808C28.7159 13.2308 29.3192 13.8462 30.0494 13.8398C30.7797 13.8398 31.3766 13.218 31.3703 12.468ZM32.2085 9.3654C32.9896 9.37181 33.5865 8.78847 33.5865 8.03206C33.5865 7.31411 32.9896 6.69873 32.2784 6.69232C31.5164 6.6795 30.9004 7.28206 30.9004 8.03206C30.9004 8.76924 31.4783 9.35899 32.2022 9.3654H32.2085ZM32.2593 15.5833C31.5037 15.5833 30.9194 16.1474 30.9067 16.9039C30.894 17.641 31.4973 18.2564 32.2276 18.2628C32.9642 18.2628 33.5738 17.6731 33.5865 16.9359C33.5992 16.1923 33.0087 15.5898 32.2593 15.5833Z" fill="#FFB240"/>
<path d="M2.76245 14.2436V10.7051C3.70229 10.8077 4.43892 11.5641 4.44527 12.4295C4.45797 13.3462 3.77214 14.0898 2.76245 14.2436Z" fill="#F57C00"/>
<path d="M8.97291 6.75C8.97291 6.75 8.95386 6.77564 8.94751 6.78846C8.94751 6.78205 8.94751 6.76923 8.94751 6.76282C8.95386 6.75641 8.96656 6.75641 8.97926 6.75H8.97291Z" fill="#F57C00"/>
<path d="M8.97926 18.1923C8.97926 18.1923 8.95386 18.1859 8.94751 18.1795C8.94751 18.1795 8.94751 18.1667 8.94751 18.1538C8.95386 18.1667 8.96656 18.1795 8.97291 18.1923H8.97926Z" fill="#F57C00"/>
<path d="M31.3702 12.468C31.3702 13.2115 30.7733 13.8333 30.0494 13.8397C29.3254 13.8397 28.7158 13.2308 28.7158 12.4808C28.7158 11.7308 29.3064 11.1154 30.0367 11.109C30.7606 11.109 31.3702 11.7244 31.3702 12.468Z" fill="white"/>
<path d="M32.2085 9.36539C31.4846 9.35898 30.9067 8.76924 30.9067 8.03206C30.9067 7.27565 31.5227 6.67308 32.2847 6.69231C32.996 6.70513 33.5929 7.32052 33.5929 8.03206C33.5929 8.79488 32.9896 9.37821 32.2149 9.36539H32.2085Z" fill="white"/>
<path d="M32.2593 15.5833C33.0086 15.5833 33.5992 16.1859 33.5865 16.9359C33.5738 17.6731 32.9642 18.2692 32.2275 18.2628C31.4909 18.2628 30.8876 17.641 30.9067 16.9038C30.9194 16.1474 31.5036 15.5769 32.2593 15.5833Z" fill="white"/>
</g>
<defs>
<clipPath id="clip0_512_3026">
<rect width="38" height="25" fill="white"/>
</clipPath>
</defs>
</svg>
